<svg width="36" height="30" viewBox="0 0 36 30" fill="none" xmlns="http://www.w3.org/2000/svg">
<path d="M0 3.01333C0 2.18925 0.675 1.515 1.5 1.515H27C27.825 1.515 28.5 2.18925 28.5 3.01333C28.5 3.83742 27.825 4.51167 27 4.51167H1.5C0.675 4.51167 0 3.83742 0 3.01333ZM27 25.4883H1.5C0.675 25.4883 0 26.1626 0 26.9867C0 27.8107 0.675 28.485 1.5 28.485H27C27.825 28.485 28.5 27.8107 28.5 26.9867C28.5 26.1626 27.825 25.4883 27 25.4883ZM34.5 13.5017H9C8.175 13.5017 7.5 14.1759 7.5 15C7.5 15.8241 8.175 16.4983 9 16.4983H34.5C35.325 16.4983 36 15.8241 36 15C36 14.1759 35.325 13.5017 34.5 13.5017Z" fill="#00A7BF"/>
</svg>
