<svg width="23" height="23" viewBox="0 0 23 23" fill="none" xmlns="http://www.w3.org/2000/svg">
<path d="M1.788 21.5763C1.20528 20.9936 1.20581 20.0395 1.78918 19.4562L19.8204 1.42496C20.4038 0.841599 21.3578 0.84107 21.9405 1.42378C22.5233 2.0065 22.5227 2.96056 21.9394 3.54393L3.90814 21.5751C3.32478 22.1585 2.37071 22.159 1.788 21.5763Z" fill="#00A7BF"/>
<path d="M1.78793 1.42374C2.37065 0.841025 3.32471 0.841555 3.90807 1.42492L21.9393 19.4561C22.5227 20.0395 22.5232 20.9936 21.9405 21.5763C21.3578 22.159 20.4037 22.1585 19.8203 21.5751L1.78911 3.54388C1.20575 2.96052 1.20522 2.00645 1.78793 1.42374Z" fill="#00A7BF"/>
</svg>
