<svg width="48" height="48" viewBox="0 0 48 48" fill="none" xmlns="http://www.w3.org/2000/svg">
<g clip-path="url(#clip0_238_5237)">
<path d="M24 47.9999C37.2548 47.9999 48 37.2548 48 23.9999C48 10.7451 37.2548 -6.10352e-05 24 -6.10352e-05C10.7452 -6.10352e-05 0 10.7451 0 23.9999C0 37.2548 10.7452 47.9999 24 47.9999Z" fill="#00A7BF"/>
<path d="M33.0707 14.3535C30.6637 11.8056 27.4634 10.402 24.0534 10.4003C17.0282 10.4003 11.3091 16.4463 11.3069 23.8778C11.3056 26.2539 11.8928 28.5727 13.008 30.6158L12.8 36.0003L17.9568 35.7264C19.8189 36.7994 21.9149 37.3655 24.0483 37.3665H24.0538C31.079 37.3665 36.7971 31.3196 36.8 23.8883C36.8016 20.2874 35.4765 16.901 33.0707 14.3535ZM24.0538 35.09H24.0496C22.1478 35.0893 20.2835 34.5493 18.6566 33.5288L18.2698 33.2858L15.0579 33.6003L15.3299 30.2645L15.0781 29.8395C14.0173 28.0563 13.457 25.9953 13.4582 23.8778C13.4602 17.7016 18.2131 12.6765 24.057 12.6765C26.887 12.6772 29.5466 13.8442 31.5472 15.9621C33.5475 18.0796 34.6483 20.8938 34.6477 23.8873C34.6458 30.0646 29.8928 35.09 24.0538 35.09ZM29.865 26.7002C29.5462 26.5313 27.9805 25.7175 27.6883 25.6042C27.3962 25.4919 27.1846 25.436 26.9722 25.773C26.7597 26.1101 26.1494 26.869 25.9632 27.0937C25.7776 27.3184 25.592 27.3468 25.2733 27.1779C24.9546 27.0091 23.9286 26.6538 22.713 25.5061C21.7658 24.6138 21.1264 23.51 20.9408 23.173C20.7552 22.836 20.921 22.6543 21.0806 22.4861C21.224 22.3352 21.3994 22.093 21.5584 21.896C21.7174 21.6991 21.7706 21.5587 21.8768 21.3343C21.983 21.1097 21.9302 20.9131 21.8502 20.7446C21.7702 20.5757 21.1334 18.9181 20.8685 18.2437C20.6096 17.5869 20.3472 17.6759 20.152 17.6658C19.9658 17.6563 19.7536 17.6536 19.5414 17.6536C19.3293 17.6536 18.984 17.7378 18.6922 18.0752C18.4006 18.4122 17.5776 19.2266 17.5776 20.885C17.5776 22.5423 18.7187 24.1441 18.8781 24.3685C19.0374 24.5928 21.1238 27.9951 24.3187 29.4538C25.0784 29.8003 25.672 30.0077 26.1344 30.1634C26.8973 30.4202 27.5917 30.3833 28.1408 30.2967C28.7526 30.2002 30.025 29.4822 30.2909 28.6955C30.5562 27.9091 30.5562 27.2351 30.4758 27.0944C30.3955 26.9533 30.183 26.869 29.865 26.7002Z" fill="white"/>
</g>
<defs>
<clipPath id="clip0_238_5237">
<rect width="48" height="48" fill="white"/>
</clipPath>
</defs>
</svg>
