<svg width="48" height="48" viewBox="0 0 48 48" fill="none" xmlns="http://www.w3.org/2000/svg">
<rect width="48" height="48" rx="24" fill="#00A7BF"/>
<g clip-path="url(#clip0_238_5228)">
<g clip-path="url(#clip1_238_5228)">
<path fill-rule="evenodd" clip-rule="evenodd" d="M24 36C30.6274 36 36 30.6274 36 24C36 17.3726 30.6274 12 24 12C17.3726 12 12 17.3726 12 24C12 30.6274 17.3726 36 24 36ZM29.2745 19.6666C29.3671 18.6154 28.2569 19.0483 28.2569 19.0483C27.4373 19.3877 26.592 19.7323 25.7376 20.0808C23.088 21.1615 20.351 22.278 18.0194 23.377C16.7551 23.8406 17.4953 24.3043 17.4953 24.3043L19.4995 24.9228C20.4247 25.2012 20.9179 24.8918 20.9179 24.8918L25.235 21.9547C26.7768 20.9035 26.4067 21.7692 26.0366 22.1402L22.799 25.2319C22.3056 25.6649 22.5523 26.0359 22.7681 26.2214C23.3801 26.7612 24.8849 27.7488 25.5418 28.1798C25.7126 28.2919 25.8262 28.3666 25.8518 28.3858C26.0059 28.5094 26.8385 29.0659 27.3936 28.9423C27.9487 28.8185 28.0104 28.1074 28.0104 28.1074L28.7503 23.2531C28.8612 22.4105 28.9886 21.6005 29.0904 20.9534C29.1864 20.3424 29.2596 19.877 29.2745 19.6666Z" fill="white"/>
</g>
</g>
<defs>
<clipPath id="clip0_238_5228">
<rect width="24" height="24" fill="white" transform="translate(12 12)"/>
</clipPath>
<clipPath id="clip1_238_5228">
<rect width="24" height="24" fill="white" transform="translate(12 12)"/>
</clipPath>
</defs>
</svg>
