<svg width="33" height="13" viewBox="0 0 33 13" fill="none" xmlns="http://www.w3.org/2000/svg">
<path d="M7.78366 0.873786L10.7638 5.47582C11.1316 6.04386 11.0639 6.79649 10.6019 7.28685L5.73803 12.4448C5.40372 12.7997 4.94239 13 4.46012 13H0.838551C0.085483 13 -0.284421 12.0635 0.257871 11.5297L5.26274 6.60263C5.32206 6.54418 5.32974 6.44868 5.27949 6.38169L1.91127 1.85663C1.34455 1.09473 1.87637 0 2.813 0H6.19029C6.83168 0 7.42981 0.328556 7.78366 0.8745V0.873786Z" fill="#00A7BF"/>
<path d="M18.7837 0.873786L21.7638 5.47582C22.1316 6.04386 22.0639 6.79649 21.6019 7.28685L16.738 12.4448C16.4037 12.7997 15.9424 13 15.4601 13H11.8386C11.0855 13 10.7156 12.0635 11.2579 11.5297L16.2627 6.60263C16.3221 6.54418 16.3297 6.44868 16.2795 6.38169L12.9113 1.85663C12.3446 1.09473 12.8764 0 13.813 0H17.1903C17.8317 0 18.4298 0.328556 18.7837 0.8745V0.873786Z" fill="#00A7BF"/>
<path d="M29.7837 0.873786L32.7638 5.47582C33.1316 6.04386 33.0639 6.79649 32.6019 7.28685L27.738 12.4448C27.4037 12.7997 26.9424 13 26.4601 13H22.8386C22.0855 13 21.7156 12.0635 22.2579 11.5297L27.2627 6.60263C27.3221 6.54418 27.3297 6.44868 27.2795 6.38169L23.9113 1.85663C23.3446 1.09473 23.8764 0 24.813 0H28.1903C28.8317 0 29.4298 0.328556 29.7837 0.8745V0.873786Z" fill="#00A7BF"/>
</svg>
