<svg width="37" height="37" viewBox="0 0 37 37" fill="none" xmlns="http://www.w3.org/2000/svg">
<path d="M37 18.5C37 14.8411 35.915 11.2643 33.8822 8.22196C31.8494 5.17965 28.9601 2.80846 25.5796 1.40824C22.1992 0.0080172 18.4795 -0.358347 14.8908 0.355482C11.3022 1.06931 8.0058 2.83126 5.41853 5.41853C2.83126 8.0058 1.0693 11.3022 0.355478 14.8908C-0.358351 18.4795 0.00801216 22.1992 1.40823 25.5796C2.80845 28.9601 5.17964 31.8494 8.22195 33.8822C11.2643 35.915 14.841 37 18.5 37C23.4049 36.9947 28.1073 35.0439 31.5756 31.5756C35.0439 28.1073 36.9947 23.4049 37 18.5ZM13.2368 20.6799C12.6587 20.1017 12.334 19.3176 12.334 18.5C12.334 17.6824 12.6587 16.8983 13.2368 16.3201L20.441 9.11588L22.6209 11.2958L15.4167 18.5L22.6795 25.7643L20.5042 27.9443L13.2368 20.6799Z" fill="#004169"/>
</svg>
