<svg width="37" height="37" viewBox="0 0 37 37" fill="none" xmlns="http://www.w3.org/2000/svg">
<path d="M0 18.5C0 22.159 1.08501 25.7357 3.11781 28.778C5.15062 31.8204 8.03992 34.1915 11.4204 35.5918C14.8008 36.992 18.5205 37.3583 22.1092 36.6445C25.6978 35.9307 28.9942 34.1687 31.5815 31.5815C34.1687 28.9942 35.9307 25.6978 36.6445 22.1092C37.3583 18.5205 36.992 14.8008 35.5918 11.4204C34.1915 8.03992 31.8204 5.15062 28.778 3.11781C25.7357 1.08501 22.159 0 18.5 0C13.5951 0.005305 8.89266 1.95611 5.42438 5.42438C1.95611 8.89266 0.005305 13.5951 0 18.5ZM23.7632 16.3201C24.3413 16.8983 24.666 17.6824 24.666 18.5C24.666 19.3176 24.3413 20.1017 23.7632 20.6799L16.559 27.8841L14.3791 25.7042L21.5833 18.5L14.3205 11.2357L16.4958 9.05575L23.7632 16.3201Z" fill="#004169"/>
</svg>
