<svg width="29" height="29" viewBox="0 0 29 29" fill="none" xmlns="http://www.w3.org/2000/svg">
<path fill-rule="evenodd" clip-rule="evenodd" d="M14.5 28.0362C21.9758 28.0362 28.0362 21.9758 28.0362 14.5C28.0362 7.02421 21.9758 0.96376 14.5 0.96376C7.02419 0.96376 0.963745 7.02421 0.963745 14.5C0.963745 21.9758 7.02419 28.0362 14.5 28.0362ZM20.4497 9.61179C20.5542 8.42602 19.3018 8.91441 19.3018 8.91441C18.3773 9.29721 17.4238 9.68597 16.46 10.0791C13.4712 11.2981 10.3839 12.5575 7.75379 13.7972C6.32761 14.3202 7.16253 14.8433 7.16253 14.8433L9.42335 15.5409C10.467 15.855 11.0233 15.506 11.0233 15.506L15.8931 12.1929C17.6323 11.0071 17.2148 11.9836 16.7974 12.4022L13.1453 15.8896C12.5887 16.378 12.867 16.7966 13.1104 17.0058C13.8007 17.6147 15.4981 18.7287 16.2391 19.2149C16.4319 19.3414 16.5599 19.4256 16.5889 19.4472C16.7627 19.5866 17.7018 20.2145 18.328 20.075C18.9542 19.9353 19.0238 19.1332 19.0238 19.1332L19.8584 13.6575C19.9835 12.707 20.1273 11.7933 20.2421 11.0634C20.3503 10.3742 20.4329 9.84922 20.4497 9.61179Z" fill="#00A7BF"/>
</svg>
