<svg width="53" height="53" viewBox="0 0 53 53" fill="none" xmlns="http://www.w3.org/2000/svg">
<path d="M14.3333 24L24.3333 1.5C26.3224 1.5 28.2301 2.29018 29.6366 3.6967C31.0431 5.10322 31.8333 7.01088 31.8333 9V19H45.9833C46.7081 18.9918 47.426 19.1413 48.0872 19.438C48.7485 19.7348 49.3373 20.1718 49.813 20.7188C50.2886 21.2657 50.6396 21.9096 50.8417 22.6056C51.0437 23.3017 51.0921 24.0334 50.9833 24.75L47.5333 47.25C47.3525 48.4423 46.7469 49.529 45.8281 50.31C44.9093 51.091 43.7391 51.5136 42.5333 51.5H14.3333M14.3333 24V51.5M14.3333 24H6.83331C5.50723 24 4.23546 24.5268 3.29778 25.4645C2.3601 26.4021 1.83331 27.6739 1.83331 29V46.5C1.83331 47.8261 2.3601 49.0979 3.29778 50.0355C4.23546 50.9732 5.50723 51.5 6.83331 51.5H14.3333" stroke="white" stroke-width="2" stroke-linecap="round" stroke-linejoin="round"/>
</svg>
