<svg width="31" height="31" viewBox="0 0 31 31" fill="none" xmlns="http://www.w3.org/2000/svg">
<g clip-path="url(#clip0_236_2904)">
<path d="M15.5 30.5C23.7843 30.5 30.5 23.7843 30.5 15.5C30.5 7.21573 23.7843 0.5 15.5 0.5C7.21573 0.5 0.5 7.21573 0.5 15.5C0.5 23.7843 7.21573 30.5 15.5 30.5Z" fill="#00A7BF"/>
<path d="M21.1692 9.47072C19.6648 7.87828 17.6646 7.00106 15.5334 7C11.1426 7 7.56817 10.7787 7.56677 15.4234C7.56597 16.9085 7.93297 18.3577 8.62997 19.6346L8.5 23L11.723 22.8288C12.8868 23.4994 14.1968 23.8532 15.5302 23.8539H15.5336C19.9244 23.8539 23.4982 20.0745 23.5 15.43C23.501 13.1794 22.6728 11.0629 21.1692 9.47072ZM15.5336 22.431H15.531C14.3424 22.4306 13.1772 22.0931 12.1604 21.4553L11.9186 21.3034L9.91113 21.5L10.0812 19.4151L9.92377 19.1495C9.26077 18.035 8.91057 16.7469 8.91137 15.4234C8.91257 11.5633 11.8832 8.42262 15.5356 8.42262C17.3044 8.42305 18.9666 9.15244 20.217 10.4761C21.4672 11.7995 22.1552 13.5584 22.1548 15.4294C22.1536 19.2901 19.183 22.431 15.5336 22.431ZM19.1656 17.1874C18.9664 17.0819 17.9878 16.5733 17.8052 16.5024C17.6226 16.4322 17.4904 16.3973 17.3576 16.6079C17.2248 16.8186 16.8434 17.2929 16.727 17.4333C16.611 17.5738 16.495 17.5915 16.2958 17.486C16.0966 17.3805 15.4554 17.1584 14.6956 16.4411C14.1036 15.8834 13.704 15.1936 13.588 14.9829C13.472 14.7723 13.5756 14.6587 13.6754 14.5536C13.765 14.4593 13.8746 14.3079 13.974 14.1848C14.0734 14.0617 14.1066 13.974 14.173 13.8338C14.2394 13.6933 14.2064 13.5705 14.1564 13.4651C14.1064 13.3596 13.7084 12.3236 13.5428 11.9021C13.381 11.4916 13.217 11.5472 13.095 11.5409C12.9786 11.535 12.846 11.5333 12.7134 11.5333C12.5808 11.5333 12.365 11.5859 12.1826 11.7968C12.0004 12.0074 11.486 12.5164 11.486 13.5529C11.486 14.5887 12.1992 15.5899 12.2988 15.7301C12.3984 15.8703 13.7024 17.9967 15.6992 18.9084C16.174 19.125 16.545 19.2546 16.834 19.3519C17.3108 19.5124 17.7448 19.4894 18.088 19.4352C18.4704 19.3749 19.2656 18.9262 19.4318 18.4345C19.5976 17.943 19.5976 17.5217 19.5474 17.4338C19.4972 17.3456 19.3644 17.2929 19.1656 17.1874Z" fill="white"/>
</g>
<defs>
<clipPath id="clip0_236_2904">
<rect width="30" height="30" fill="white" transform="translate(0.5 0.5)"/>
</clipPath>
</defs>
</svg>
