<svg width="159" height="30" viewBox="0 0 159 30" fill="none" xmlns="http://www.w3.org/2000/svg">
<path d="M156.426 12.3438C155.006 12.3438 153.851 13.5354 153.851 15.0001C153.851 16.4649 155.006 17.6566 156.426 17.6566C157.845 17.6566 159 16.4649 159 15.0001C159 13.5354 157.845 12.3438 156.426 12.3438ZM158.315 15.0001C158.315 16.0756 157.468 16.9497 156.426 16.9497C155.383 16.9497 154.536 16.0746 154.536 15.0001C154.536 13.9257 155.383 13.0506 156.426 13.0506C157.468 13.0506 158.315 13.9257 158.315 15.0001Z" fill="#00A7BF"/>
<path d="M48.8395 0.8072C48.4338 0.447155 47.8046 0.268555 46.9492 0.268555C45.962 0.268555 45.1835 0.553936 44.6102 1.12188C44.0406 1.69361 43.7512 2.41748 43.7512 3.30011C43.7512 3.83876 43.9518 4.29331 44.3492 4.66281C44.7467 5.03514 45.3722 5.22224 46.223 5.22224C47.2304 5.22224 48.0207 4.94063 48.594 4.38119C49.1637 3.81797 49.4522 3.11017 49.4522 2.24927C49.4522 1.6492 49.2479 1.16914 48.8386 0.808146L48.8395 0.8072ZM43.6349 6.89773L40.991 22.8011H45.5251L48.2012 6.89773H43.6349Z" fill="white"/>
<path d="M56.612 9.65862V9.62931H61.9887L62.4265 6.89637H56.9014L57.2503 5.78694L57.8923 2.12695H53.326L52.5714 6.68942L52.5394 6.89637H49.5181L49.0529 9.62931H52.0741L51.1428 15.0574C51.01 15.7198 50.8936 16.4154 50.7938 17.144C50.6977 17.8726 50.6977 18.5926 50.7938 19.3052C50.8946 20.013 51.1345 20.6594 51.5246 21.2386C51.9102 21.8179 52.5155 22.2781 53.3425 22.6212C54.1649 22.9604 55.2648 23.1305 56.6413 23.1305C57.6881 23.1305 58.5993 23.0559 59.3741 22.9028C60.1489 22.7535 60.8586 22.5711 61.4969 22.3481L61.4411 19.1389C60.9356 19.3373 60.4135 19.5036 59.8686 19.6312C59.3265 19.7635 58.8411 19.8297 58.4161 19.8297C57.3291 19.8297 56.5744 19.5981 56.1495 19.1379C55.7246 18.6786 55.4993 18.0823 55.4791 17.3537C55.459 16.6204 55.5396 15.8588 55.7117 15.0555L56.6147 9.65672L56.612 9.65862Z" fill="white"/>
<path d="M80.8032 8.50378C79.4671 7.23275 77.4605 6.59961 74.7845 6.59961C72.5334 6.59961 70.5754 7.03809 68.9104 7.92072C67.2409 8.79862 65.9496 10.012 65.0301 11.5514C64.107 13.0918 63.6454 14.8391 63.6454 16.8018C63.6454 17.9613 63.9385 19.0169 64.52 19.9647C65.1016 20.9173 66.0082 21.6743 67.2363 22.246C68.4681 22.8177 70.0534 23.0993 71.9912 23.0993C73.4437 23.0993 74.8605 22.9169 76.237 22.5446C77.6134 22.1761 78.7848 21.6506 79.7564 20.9712L78.565 18.5699C78.3525 18.6692 77.9789 18.8062 77.4458 18.9753C76.9119 19.1454 76.2983 19.3023 75.6005 19.4393C74.9026 19.5801 74.1837 19.6501 73.4456 19.6501C71.8365 19.6501 70.5846 19.3108 69.6816 18.6314C68.7786 17.9519 68.3289 17.1203 68.3289 16.1384V15.7198H82.1403L82.4334 14.188C82.6825 11.6705 82.1403 9.77386 80.8041 8.50283L80.8032 8.50378ZM68.97 13.3479C69.4718 12.2876 70.2219 11.4352 71.2211 10.785C72.2202 10.1348 73.3192 9.80788 74.5235 9.80788C75.627 9.80788 76.5099 10.1141 77.1674 10.7226C77.825 11.336 78.1547 12.2091 78.1547 13.3479H68.97Z" fill="white"/>
<path d="M97.1304 14.4167C96.3638 14.0652 95.5451 13.7665 94.6751 13.5142C93.8005 13.2657 92.9817 13.0294 92.2152 12.8102C91.4487 12.591 90.8186 12.3547 90.325 12.1062C89.8313 11.8538 89.5822 11.56 89.5822 11.2197C89.5822 10.8181 89.8707 10.4543 90.4413 10.1226C91.0146 9.79564 91.8013 9.63026 92.8123 9.63026C93.6265 9.63026 94.469 9.72949 95.34 9.92794C96.2146 10.1311 96.9893 10.3466 97.667 10.5743C98.3447 10.8058 98.8109 10.9589 99.0637 11.0383L100.46 8.00769C100.208 7.90847 99.7258 7.7431 99.0197 7.51535C98.309 7.28383 97.439 7.07687 96.4032 6.88598C95.3638 6.69509 94.2162 6.60059 92.9561 6.60059C91.3873 6.60059 89.9788 6.81983 88.7388 7.25926C87.4987 7.70247 86.5197 8.31105 85.8017 9.08973C85.0874 9.87219 84.7266 10.7832 84.7266 11.8227C84.7266 12.522 84.9757 13.1107 85.4693 13.5908C85.9629 14.0708 86.5967 14.4724 87.3751 14.7919C88.149 15.1103 88.9723 15.3919 89.8469 15.632C90.7178 15.872 91.5402 16.1035 92.3187 16.3237C93.0935 16.5429 93.7272 16.7792 94.2208 17.0277C94.7145 17.28 94.9626 17.5947 94.9626 17.9718C94.9626 18.4726 94.6421 18.9036 94.0038 19.2636C93.3618 19.6236 92.5669 19.8023 91.6199 19.8023C90.673 19.8023 89.8185 19.6983 88.9595 19.4876C88.0968 19.2806 87.3183 19.0444 86.6324 18.7835C85.9419 18.5227 85.1918 18.1835 84.3776 17.7648L82.3436 20.8247C83.3309 21.284 84.2494 21.6648 85.092 21.9635C85.9345 22.2659 86.8934 22.5305 87.9686 22.7582C89.0437 22.9897 90.1638 23.1022 91.3268 23.1022C93.0522 23.1022 94.545 22.8499 95.8052 22.3405C97.0653 21.8274 98.0398 21.1479 98.7266 20.2993C99.4162 19.4507 99.7615 18.5019 99.7615 17.4634C99.7615 16.7641 99.5133 16.1678 99.0197 15.6792C98.5261 15.1906 97.896 14.7682 97.1294 14.4205L97.1304 14.4167Z" fill="white"/>
<path d="M120.219 9.73351C119.878 8.76488 119.2 7.99848 118.18 7.43999C117.165 6.88055 115.764 6.59989 113.98 6.59989C111.536 6.59989 109.562 7.20847 108.049 8.43036L108.57 7.22925L109.822 0H105.227L101.359 22.801H105.953L107.35 14.3092V14.2185C107.699 12.6989 108.289 11.564 109.124 10.8146C109.958 10.0652 111.102 9.68815 112.555 9.68815C113.795 9.68815 114.705 9.96976 115.287 10.5283C115.869 11.0877 116.054 11.9609 115.841 13.1412L114.212 22.7717H118.75L120.375 13.0212C120.607 11.8002 120.555 10.7069 120.218 9.73351H120.219Z" fill="white"/>
<path d="M129.797 0.8072C129.392 0.447155 128.762 0.268555 127.906 0.268555C126.919 0.268555 126.137 0.553936 125.567 1.12188C124.994 1.69361 124.709 2.41748 124.709 3.30011C124.709 3.83876 124.91 4.29331 125.307 4.66281C125.705 5.03514 126.327 5.22224 127.181 5.22224C128.188 5.22224 128.979 4.94063 129.552 4.38119C130.122 3.81797 130.406 3.11017 130.406 2.24927C130.406 1.6492 130.206 1.16914 129.797 0.808146V0.8072ZM124.593 6.89773L121.949 22.8011H126.483L129.159 6.89773H124.593Z" fill="white"/>
<path d="M149.527 11.6997C149.246 10.097 148.504 8.85904 147.304 7.97736C146.101 7.09945 144.483 6.65625 142.449 6.65625C139.945 6.65625 137.87 7.2979 136.225 8.57743L135.35 6.92936H132.646L128.693 29.9997H133.199L134.567 22.0787L134.535 21.4493C135.137 21.9709 135.859 22.3726 136.702 22.6627C137.544 22.9528 138.52 23.0974 139.627 23.0974C142.067 23.0974 144.061 22.588 145.602 21.5693C147.142 20.5506 148.222 19.1303 148.844 17.3092C149.578 15.1688 149.806 13.2968 149.526 11.6988L149.527 11.6997ZM144.105 17.0702C143.736 18.1304 143.143 18.8798 142.331 19.3183C141.516 19.7615 140.545 19.9808 139.422 19.9808C138.238 19.9808 137.307 19.6906 136.629 19.1114C135.952 18.5321 135.546 17.7203 135.41 16.6808C135.273 15.6413 135.438 14.4279 135.903 13.0492C136.272 11.9483 136.899 11.1242 137.777 10.5733C138.66 10.0223 139.711 9.74924 140.935 9.74924C142.158 9.74924 142.993 10.0601 143.623 10.6763C144.253 11.2971 144.61 12.1628 144.698 13.2722C144.786 14.3816 144.585 15.6489 144.104 17.0692L144.105 17.0702Z" fill="white"/>
<path d="M14.1411 6.68395L18.0516 12.7858C18.5343 13.539 18.4454 14.5369 17.8392 15.1871L11.4568 22.026C11.0182 22.4967 10.4128 22.7622 9.77999 22.7622H5.02782C4.03966 22.7622 3.55428 21.5205 4.26587 20.8127L10.8332 14.2799C10.911 14.2024 10.9211 14.0757 10.8552 13.9869L6.43543 7.98711C5.69179 6.9769 6.38964 5.52539 7.61866 5.52539H12.0503C12.8919 5.52539 13.6768 5.96103 14.1411 6.6849V6.68395Z" fill="#00A7BF"/>
<path d="M2.48644 16.7095C3.85966 16.7095 4.97287 15.5608 4.97287 14.1438C4.97287 12.7268 3.85966 11.5781 2.48644 11.5781C1.11322 11.5781 0 12.7268 0 14.1438C0 15.5608 1.11322 16.7095 2.48644 16.7095Z" fill="#00A7BF"/>
<path d="M38.7481 19.0763L38.1373 22.6446H22.2323L22.878 18.3685L25.6483 15.4002C26.2546 14.7501 26.3425 13.7521 25.8599 12.999L24.2572 10.4966L24.3112 10.1885L25.836 1.03809H30.7228L27.697 19.0753H38.7481V19.0763Z" fill="white"/>
</svg>
