<svg width="836" height="324" viewBox="0 0 836 324" fill="none" xmlns="http://www.w3.org/2000/svg">
<path fill-rule="evenodd" clip-rule="evenodd" d="M-149.668 14.8319C-149.439 15.2763 -149.438 15.2762 -149.438 15.2758L-149.433 15.2737L-149.415 15.2641C-149.397 15.2554 -149.371 15.2421 -149.335 15.2245C-149.264 15.1892 -149.156 15.1364 -149.011 15.0675C-148.721 14.9297 -148.283 14.7274 -147.696 14.472C-146.521 13.9611 -144.75 13.238 -142.37 12.3934C-137.612 10.7043 -130.425 8.52965 -120.727 6.59773C-101.333 2.734 -71.8954 -0.159629 -31.7683 3.74626C48.4859 11.5581 171.514 46.5699 342.472 155.441C513.531 264.375 636.707 299.456 717.153 307.287C757.376 311.202 786.912 308.304 806.405 304.421C816.15 302.479 823.384 300.291 828.187 298.587C830.588 297.734 832.381 297.003 833.576 296.483C833.904 296.34 834.186 296.214 834.424 296.105C834.621 296.015 834.787 295.938 834.922 295.873C835.072 295.802 835.185 295.747 835.261 295.709C835.299 295.69 835.328 295.676 835.348 295.666L835.37 295.654L835.376 295.651C835.377 295.651 835.378 295.65 835.283 295.465C835.251 295.402 835.208 295.318 835.15 295.206L835.012 294.939C834.92 294.761 834.92 294.761 834.919 294.762L834.915 294.764L834.896 294.774C834.879 294.782 834.853 294.795 834.817 294.813C834.746 294.848 834.638 294.901 834.493 294.97C834.203 295.108 833.765 295.31 833.178 295.566C832.003 296.076 830.231 296.8 827.852 297.644C823.094 299.333 815.907 301.508 806.209 303.44C786.815 307.304 757.377 310.197 717.25 306.291C636.996 298.48 513.968 263.468 343.009 154.597C171.951 45.663 48.7744 10.5814 -31.6714 2.75097C-71.8944 -1.16426 -101.431 1.73376 -120.923 5.617C-130.669 7.55855 -137.903 9.74618 -142.705 11.451C-145.106 12.3034 -146.899 13.0351 -148.095 13.5549C-148.692 13.8148 -149.141 14.0218 -149.441 14.1644C-149.591 14.2356 -149.704 14.2908 -149.78 14.3285C-149.818 14.3474 -149.846 14.3618 -149.866 14.3717L-149.888 14.3832L-149.895 14.3863C-149.896 14.3871 -149.897 14.3876 -149.668 14.8319ZM-151.685 22.3186C-151.686 22.319 -151.686 22.319 -151.916 21.8747C-152.145 21.4304 -152.144 21.4299 -152.142 21.4291L-152.136 21.426L-152.114 21.4145C-152.094 21.4046 -152.065 21.3902 -152.027 21.3713C-151.951 21.3336 -151.838 21.2784 -151.688 21.2071C-151.388 21.0645 -150.94 20.8576 -150.343 20.5977C-149.147 20.0779 -147.354 19.3462 -144.953 18.4938C-140.15 16.789 -132.916 14.6013 -123.171 12.6598C-103.678 8.77655 -74.1421 5.87853 -33.9192 9.79374C46.5267 17.6242 169.703 52.7058 340.762 161.64C511.72 270.51 634.748 305.522 715.002 313.334C755.129 317.24 784.567 314.346 803.961 310.483C813.659 308.551 820.846 306.376 825.604 304.687C827.983 303.842 829.755 303.119 830.93 302.608C831.517 302.353 831.955 302.151 832.245 302.013C832.39 301.944 832.498 301.891 832.569 301.856C832.605 301.838 832.631 301.825 832.649 301.816L832.667 301.807L832.672 301.805C832.672 301.804 832.672 301.804 832.764 301.982L832.902 302.248C833.031 302.498 833.087 302.608 833.111 302.656C833.13 302.693 833.129 302.694 833.128 302.694L833.122 302.697L833.1 302.709C833.08 302.719 833.052 302.733 833.013 302.752C832.937 302.79 832.825 302.845 832.675 302.916C832.528 302.986 832.346 303.071 832.128 303.17C831.901 303.274 831.634 303.393 831.329 303.526C830.133 304.045 828.34 304.777 825.939 305.629C821.136 307.334 813.902 309.522 804.157 311.463C784.665 315.347 755.128 318.245 714.905 314.329C634.459 306.499 511.283 271.417 340.225 162.483C169.266 53.6127 46.2382 18.6009 -34.0161 10.789C-74.1432 6.88314 -103.581 9.77679 -122.975 13.6405C-132.673 15.5724 -139.86 17.7471 -144.618 19.4362C-146.997 20.2807 -148.769 21.0039 -149.944 21.5147C-150.531 21.7701 -150.969 21.9725 -151.259 22.1103C-151.404 22.1792 -151.512 22.232 -151.583 22.2673L-151.612 22.2814L-151.662 22.3069L-151.681 22.3164L-151.685 22.3186ZM-154.164 28.917C-153.934 29.3613 -153.934 29.3612 -153.933 29.3609L-153.929 29.3587L-153.91 29.3491L-153.862 29.325L-153.831 29.3096C-153.76 29.2743 -153.652 29.2215 -153.507 29.1526C-153.217 29.0147 -152.779 28.8124 -152.192 28.557C-151.017 28.0462 -149.245 27.323 -146.866 26.4784C-142.108 24.7894 -134.921 22.6147 -125.223 20.6828C-105.829 16.8191 -76.3911 13.9254 -36.264 17.8313C43.9902 25.6431 167.018 60.655 337.977 169.526C509.035 278.46 632.212 313.541 712.657 321.372C752.88 325.287 782.417 322.389 801.909 318.506C811.655 316.564 818.888 314.376 823.691 312.672C826.092 311.819 827.885 311.088 829.081 310.568C829.678 310.308 830.127 310.101 830.427 309.958C830.577 309.887 830.69 309.832 830.766 309.794C830.804 309.775 830.832 309.761 830.852 309.751L830.874 309.739L830.88 309.736C830.882 309.736 830.883 309.735 830.654 309.291L830.516 309.024C830.424 308.846 830.424 308.847 830.424 308.847L830.419 308.849L830.401 308.859L830.361 308.878L830.322 308.898C830.287 308.915 830.243 308.937 830.19 308.962L830.112 309C830.077 309.017 830.039 309.035 829.997 309.055C829.707 309.193 829.269 309.395 828.682 309.651C827.507 310.161 825.736 310.885 823.356 311.729C818.598 313.418 811.411 315.593 801.713 317.525C782.319 321.389 752.881 324.282 712.754 320.376C632.5 312.565 509.472 277.553 338.514 168.682C167.455 59.748 44.2787 24.6665 -36.1671 16.836C-76.3901 12.9208 -105.926 15.8188 -125.419 19.702C-135.164 21.6436 -142.398 23.8312 -147.201 25.5361C-149.602 26.3885 -151.395 27.1201 -152.59 27.64C-153.188 27.8999 -153.636 28.1068 -153.936 28.2494C-154.086 28.3207 -154.199 28.3759 -154.275 28.4136C-154.313 28.4324 -154.342 28.4469 -154.362 28.4568L-154.384 28.4682L-154.39 28.4713C-154.392 28.4722 -154.393 28.4727 -154.164 28.917ZM-156.181 36.404C-156.182 36.4044 -156.182 36.4045 -156.411 35.9601C-156.641 35.5158 -156.64 35.5153 -156.638 35.5145L-156.632 35.5114L-156.609 35.4999L-156.577 35.4837L-156.523 35.4567C-156.447 35.419 -156.334 35.3638 -156.184 35.2926C-155.884 35.15 -155.436 34.943 -154.838 34.6831C-153.643 34.1633 -151.85 33.4316 -149.448 32.5792C-144.646 30.8744 -137.412 28.6867 -127.666 26.7452C-108.174 22.862 -78.6378 19.9639 -38.4149 23.8792C42.0309 31.7096 165.208 66.7912 336.266 175.725C507.225 284.596 630.252 319.608 710.506 327.42C750.634 331.325 780.071 328.432 799.466 324.568C809.163 322.636 816.35 320.461 821.109 318.772C823.488 317.928 825.26 317.205 826.434 316.694C826.616 316.615 826.784 316.541 826.937 316.472C827.092 316.403 827.232 316.339 827.358 316.281C827.509 316.212 827.64 316.15 827.75 316.098L827.82 316.065L827.926 316.014C827.986 315.984 828.035 315.96 828.074 315.941C828.109 315.924 828.136 315.91 828.153 315.902L828.172 315.892L828.176 315.89C828.176 315.89 828.177 315.89 828.269 316.068L828.406 316.334C828.488 316.494 828.541 316.596 828.575 316.662C828.635 316.779 828.634 316.779 828.633 316.78L828.627 316.783L828.604 316.794C828.585 316.804 828.556 316.818 828.518 316.837C828.442 316.875 828.329 316.93 828.179 317.001C827.879 317.144 827.431 317.351 826.833 317.611C825.638 318.131 823.844 318.862 821.443 319.715C816.641 321.42 809.407 323.607 799.661 325.549C780.169 329.432 750.633 332.33 710.41 328.415C629.964 320.584 506.787 285.503 335.729 176.569C164.77 67.6981 41.7425 32.6863 -38.5118 24.8745C-78.6389 20.9686 -108.077 23.8622 -127.471 27.7259C-137.168 29.6578 -144.356 31.8325 -149.114 33.5216C-151.493 34.3662 -153.265 35.0893 -154.439 35.6002C-155.027 35.8556 -155.465 36.0579 -155.755 36.1957C-155.9 36.2646 -156.008 36.3174 -156.079 36.3527C-156.115 36.3703 -156.141 36.3836 -156.158 36.3923L-156.177 36.4019L-156.181 36.404ZM-158.659 43.0029C-158.43 43.4473 -158.43 43.4472 -158.429 43.4468L-158.425 43.4446L-158.406 43.4351C-158.389 43.4264 -158.362 43.4131 -158.327 43.3955C-158.256 43.3602 -158.148 43.3074 -158.003 43.2385C-157.713 43.1007 -157.275 42.8984 -156.687 42.6429C-155.513 42.1321 -153.741 41.4089 -151.362 40.5644C-146.604 38.8753 -139.416 36.7006 -129.719 34.7687C-110.324 30.905 -80.8867 28.0114 -40.7596 31.9172C39.4947 39.7291 162.522 74.7409 333.481 183.612C504.539 292.546 627.716 327.627 708.162 335.458C748.385 339.373 777.921 336.475 797.413 332.592C807.159 330.65 814.393 328.462 819.195 326.758C821.597 325.905 823.39 325.173 824.585 324.654C824.92 324.508 825.208 324.379 825.45 324.269C825.639 324.182 825.799 324.107 825.931 324.044C826.081 323.973 826.194 323.918 826.27 323.88C826.308 323.861 826.337 323.847 826.356 323.837L826.379 323.825L826.385 323.822C826.387 323.821 826.388 323.821 826.158 323.377L826.021 323.11C825.929 322.932 825.929 322.932 825.928 322.933L825.924 322.935L825.905 322.944C825.888 322.953 825.861 322.966 825.826 322.984C825.755 323.019 825.647 323.072 825.502 323.141C825.212 323.279 824.774 323.481 824.186 323.737C823.012 324.247 821.24 324.971 818.861 325.815C814.103 327.504 806.915 329.679 797.218 331.611C777.824 335.475 748.386 338.368 708.259 334.462C628.004 326.65 504.977 291.639 334.018 182.768C162.96 73.834 39.7832 38.7524 -40.6627 30.922C-80.8856 27.0067 -110.422 29.9048 -129.914 33.788C-139.66 35.7295 -146.894 37.9172 -151.696 39.622C-154.097 40.4744 -155.891 41.2061 -157.086 41.7259C-157.684 41.9858 -158.132 42.1928 -158.432 42.3353C-158.582 42.4066 -158.695 42.4618 -158.771 42.4995C-158.809 42.5184 -158.838 42.5328 -158.857 42.5427L-158.88 42.5542L-158.886 42.5573C-158.887 42.5581 -158.888 42.5586 -158.659 43.0029ZM-160.678 50.4879C-160.68 50.4849 -160.684 50.4771 -160.695 50.4568C-160.718 50.4114 -160.774 50.3031 -160.907 50.0457C-161.136 49.6014 -161.135 49.6009 -161.134 49.6001L-161.128 49.597L-161.105 49.5855C-161.086 49.5756 -161.057 49.5612 -161.019 49.5423C-160.943 49.5046 -160.83 49.4494 -160.68 49.3781C-160.38 49.2355 -159.932 49.0286 -159.334 48.7687C-158.139 48.2489 -156.345 47.5172 -153.944 46.6648C-149.142 44.96 -141.908 42.7723 -132.162 40.8308C-112.67 36.9476 -83.1336 34.0495 -42.9106 37.9648C37.5352 45.7952 160.712 80.8768 331.77 189.811C502.729 298.681 625.756 333.693 706.011 341.505C746.138 345.411 775.576 342.517 794.97 338.654C804.667 336.722 811.855 334.547 816.613 332.858C818.992 332.013 820.764 331.29 821.938 330.779C822.526 330.524 822.964 330.322 823.254 330.184C823.399 330.115 823.507 330.062 823.578 330.027C823.614 330.009 823.64 329.996 823.657 329.987L823.676 329.978L823.68 329.975C823.681 329.975 823.681 329.975 823.773 330.153L823.91 330.419C824.14 330.864 824.139 330.864 824.137 330.865L824.131 330.868L824.108 330.88L824.073 330.897L824.022 330.923L823.955 330.956L823.869 330.998L823.785 331.038L823.683 331.087C823.383 331.23 822.935 331.437 822.337 331.696C821.142 332.216 819.349 332.948 816.947 333.8C812.145 335.505 804.911 337.693 795.165 339.634C775.673 343.518 746.137 346.416 705.914 342.5C625.468 334.67 502.291 299.588 331.233 190.654C160.274 81.7837 37.2467 46.7719 -43.0075 38.96C-83.1346 35.0542 -112.572 37.9478 -131.967 41.8115C-141.664 43.7434 -148.852 45.9181 -153.61 47.6072C-155.989 48.4517 -157.761 49.1749 -158.935 49.6857C-159.523 49.9411 -159.961 50.1435 -160.251 50.2813C-160.396 50.3502 -160.504 50.403 -160.575 50.4383C-160.61 50.4559 -160.637 50.4692 -160.654 50.4779L-160.673 50.4874L-160.677 50.4896C-160.677 50.4897 -160.677 50.4897 -160.677 50.4891L-160.678 50.4879ZM-162.936 57.5117L-162.929 57.5251L-162.925 57.5322L-162.925 57.5327L-162.925 57.5328L-162.92 57.5306L-162.902 57.521L-162.868 57.5041L-162.823 57.4814C-162.751 57.4462 -162.643 57.3934 -162.498 57.3244C-162.208 57.1866 -161.77 56.9843 -161.183 56.7289C-160.008 56.2181 -158.237 55.4949 -155.857 54.6503C-151.099 52.9612 -143.912 50.7866 -134.214 48.8546C-114.82 44.9909 -85.3824 42.0973 -45.2553 46.0032C34.9989 53.815 158.027 88.8268 328.985 197.697C500.044 306.632 623.22 341.713 703.666 349.544C743.889 353.459 773.425 350.561 792.917 346.678C802.663 344.736 809.897 342.548 814.7 340.844C817.101 339.991 818.894 339.259 820.089 338.74C820.687 338.48 821.135 338.273 821.435 338.13C821.585 338.059 821.698 338.004 821.774 337.966C821.812 337.947 821.841 337.933 821.861 337.923L821.883 337.911L821.889 337.908C821.889 337.908 821.89 337.908 821.889 337.907L821.888 337.904C821.887 337.901 821.884 337.895 821.879 337.885C821.86 337.847 821.807 337.743 821.662 337.463L821.525 337.196C821.433 337.018 821.433 337.018 821.432 337.019L821.428 337.021L821.409 337.03L821.365 337.053L821.33 337.07L821.244 337.112C821.18 337.143 821.101 337.182 821.006 337.227C820.761 337.344 820.409 337.506 819.952 337.708L819.86 337.749L819.77 337.788L819.691 337.823C818.516 338.333 816.744 339.057 814.365 339.901C809.607 341.59 802.42 343.765 792.722 345.697C773.328 349.56 743.89 352.454 703.763 348.548C623.509 340.736 500.481 305.725 329.522 196.854C158.464 87.9199 35.2874 52.8383 -45.1584 45.0079C-85.3814 41.0927 -114.918 43.9907 -134.41 47.8739C-144.156 49.8155 -151.39 52.0031 -156.192 53.7079C-158.593 54.5603 -160.386 55.292 -161.582 55.8118C-162.179 56.0717 -162.628 56.2787 -162.928 56.4213C-163.078 56.4926 -163.191 56.5478 -163.267 56.5855C-163.305 56.6043 -163.333 56.6188 -163.353 56.6287L-163.375 56.6401L-163.382 56.6432C-163.383 56.644 -163.384 56.6446 -163.155 57.0889C-163.009 57.3716 -162.956 57.4744 -162.936 57.5117ZM-165.173 64.5747C-165.173 64.5751 -165.173 64.5752 -165.403 64.1309C-165.632 63.6865 -165.631 63.686 -165.629 63.6852L-165.623 63.6821L-165.601 63.6707C-165.581 63.6608 -165.553 63.6463 -165.515 63.6274C-165.439 63.5898 -165.326 63.5346 -165.176 63.4633C-164.876 63.3207 -164.427 63.1137 -163.83 62.8538C-162.634 62.334 -160.841 61.6023 -158.44 60.7499C-153.637 59.0451 -146.404 56.8575 -136.658 54.9159C-117.166 51.0327 -87.6293 48.1346 -47.4064 52.0499C33.0395 59.8803 156.216 94.9619 327.274 203.896C498.233 312.767 621.261 347.778 701.515 355.59C741.642 359.496 771.08 356.603 790.474 352.739C800.172 350.807 807.359 348.632 812.117 346.943C814.496 346.099 816.268 345.375 817.443 344.865C818.03 344.609 818.468 344.407 818.758 344.269C818.903 344.2 819.011 344.147 819.082 344.112C819.118 344.094 819.144 344.081 819.161 344.072L819.18 344.063L819.184 344.061C819.185 344.061 819.185 344.061 819.185 344.062L819.189 344.069L819.211 344.11L819.277 344.238L819.415 344.505C819.644 344.949 819.643 344.949 819.641 344.95L819.635 344.953L819.613 344.965C819.593 344.975 819.564 344.989 819.526 345.008C819.495 345.023 819.458 345.042 819.415 345.063C819.352 345.093 819.276 345.13 819.187 345.172C818.887 345.315 818.439 345.522 817.842 345.782C816.646 346.301 814.853 347.033 812.452 347.886C807.649 349.59 800.415 351.778 790.67 353.72C771.177 357.603 741.641 360.501 701.418 356.586C620.972 348.755 497.796 313.674 326.737 204.739C155.779 95.8688 32.751 60.857 -47.5032 53.0452C-87.6304 49.1393 -117.068 52.0329 -136.462 55.8966C-146.16 57.8286 -153.347 60.0032 -158.105 61.6923C-160.484 62.5369 -162.256 63.2601 -163.431 63.7709C-164.018 64.0263 -164.456 64.2286 -164.746 64.3664C-164.891 64.4354 -164.999 64.4882 -165.07 64.5234C-165.106 64.5411 -165.132 64.5543 -165.15 64.563L-165.168 64.5726L-165.173 64.5747ZM-167.436 71.5888C-167.421 71.6182 -167.421 71.6181 -167.42 71.618L-167.416 71.6158L-167.397 71.6062C-167.38 71.5975 -167.354 71.5843 -167.318 71.5667C-167.247 71.5314 -167.139 71.4786 -166.994 71.4097C-166.704 71.2718 -166.266 71.0695 -165.679 70.8141C-164.504 70.3033 -162.732 69.5801 -160.353 68.7355C-155.595 67.0464 -148.408 64.8718 -138.71 62.9399C-119.316 59.0762 -89.8781 56.1825 -49.751 60.0884C30.5032 67.9002 153.531 102.912 324.49 211.783C495.548 320.717 618.725 355.798 699.17 363.629C739.393 367.544 768.93 364.646 788.422 360.763C798.168 358.821 805.402 356.634 810.204 354.929C812.605 354.076 814.398 353.345 815.594 352.825C816.191 352.565 816.64 352.358 816.94 352.215C817.09 352.144 817.203 352.089 817.279 352.051C817.317 352.032 817.345 352.018 817.365 352.008L817.387 351.997L817.393 351.993C817.395 351.993 817.396 351.992 817.167 351.548L817.029 351.282C816.937 351.104 816.937 351.104 816.937 351.104L816.932 351.106L816.914 351.116C816.896 351.124 816.87 351.138 816.834 351.155C816.763 351.19 816.655 351.243 816.51 351.312C816.22 351.45 815.782 351.652 815.195 351.908C814.02 352.419 812.248 353.142 809.869 353.986C805.111 355.675 797.924 357.85 788.226 359.782C768.832 363.646 739.394 366.539 699.267 362.633C619.013 354.822 495.985 319.81 325.027 210.939C153.968 102.005 30.7917 66.9236 -49.6542 59.0931C-89.8771 55.1779 -119.413 58.0759 -138.906 61.9591C-148.651 63.9007 -155.885 66.0883 -160.688 67.7932C-163.089 68.6456 -164.882 69.3772 -166.077 69.8971C-166.675 70.157 -167.123 70.3639 -167.423 70.5065C-167.573 70.5778 -167.686 70.633 -167.762 70.6707C-167.8 70.6895 -167.829 70.704 -167.849 70.7139L-167.871 70.7253L-167.877 70.7284C-167.879 70.7293 -167.88 70.7298 -167.651 71.1741L-167.474 71.5159L-167.436 71.5888ZM-169.668 78.6606C-169.669 78.661 -169.669 78.661 -169.898 78.2167C-170.128 77.7724 -170.127 77.7719 -170.125 77.7711L-170.119 77.768L-170.097 77.7565C-170.077 77.7466 -170.048 77.7322 -170.01 77.7133C-169.934 77.6756 -169.821 77.6204 -169.671 77.5491C-169.371 77.4065 -168.923 77.1996 -168.325 76.9397C-167.13 76.4199 -165.337 75.6882 -162.935 74.8358C-158.133 73.131 -150.899 70.9433 -141.153 69.0018C-121.661 65.1185 -92.1249 62.2205 -51.9019 66.1357C28.5439 73.9662 151.721 109.048 322.779 217.982C493.738 326.852 616.765 361.864 697.02 369.676C737.147 373.582 766.584 370.688 785.979 366.825C795.676 364.893 802.863 362.718 807.622 361.029C810.001 360.184 811.772 359.461 812.947 358.95C813.279 358.806 813.564 358.679 813.801 358.57C813.887 358.53 813.968 358.493 814.042 358.459C814.09 358.436 814.137 358.414 814.18 358.394L814.263 358.355C814.408 358.286 814.515 358.233 814.587 358.198C814.622 358.18 814.649 358.167 814.666 358.158L814.685 358.149L814.689 358.147C814.689 358.146 814.69 358.146 814.782 358.324L814.919 358.59C815.148 359.035 815.147 359.035 815.146 359.036L815.14 359.039L815.117 359.051L815.086 359.067L815.031 359.094L814.99 359.114L814.942 359.138L814.865 359.175C814.814 359.199 814.757 359.227 814.692 359.258C814.626 359.289 814.553 359.324 814.473 359.361C814.419 359.386 814.363 359.412 814.303 359.44C814.244 359.467 814.183 359.495 814.119 359.524C813.897 359.625 813.64 359.74 813.346 359.868C812.151 360.387 810.357 361.119 807.956 361.971C803.154 363.676 795.92 365.864 786.174 367.805C766.682 371.689 737.145 374.587 696.923 370.671C616.477 362.841 493.3 327.759 322.242 218.825C151.283 109.955 28.2554 74.9429 -51.9988 67.131C-92.1259 63.2251 -121.564 66.1188 -140.958 69.9825C-150.655 71.9144 -157.843 74.0891 -162.601 75.7782C-164.98 76.6227 -166.752 77.3459 -167.927 77.8567C-168.514 78.1121 -168.952 78.3145 -169.242 78.4523C-169.306 78.4827 -169.363 78.51 -169.412 78.5341C-169.475 78.5644 -169.526 78.5896 -169.566 78.6093C-169.602 78.6269 -169.628 78.6402 -169.645 78.6488L-169.664 78.6584L-169.668 78.6606ZM-172.146 85.2595C-171.917 85.7038 -171.917 85.7038 -171.916 85.7034L-171.912 85.7012L-171.893 85.6916C-171.876 85.683 -171.85 85.6697 -171.814 85.6521C-171.743 85.6168 -171.635 85.564 -171.49 85.4951C-171.2 85.3573 -170.762 85.1549 -170.174 84.8995C-169 84.3887 -167.228 83.6655 -164.849 82.821C-160.091 81.1319 -152.903 78.9572 -143.206 77.0253C-123.812 73.1616 -94.3739 70.2679 -54.2468 74.1738C26.0075 81.9856 149.035 116.997 319.994 225.868C491.052 334.802 614.229 369.884 694.675 377.714C734.898 381.629 764.434 378.731 783.926 374.848C793.672 372.907 800.906 370.719 805.708 369.014C808.109 368.162 809.903 367.43 811.098 366.91C811.696 366.65 812.144 366.443 812.444 366.301C812.594 366.23 812.707 366.174 812.783 366.137C812.821 366.118 812.85 366.103 812.869 366.093L812.892 366.082L812.898 366.079C812.899 366.078 812.899 366.078 812.859 365.999L812.8 365.884L812.671 365.633L812.534 365.367C812.476 365.256 812.454 365.214 812.446 365.198C812.441 365.189 812.441 365.189 812.441 365.189L812.437 365.192L812.418 365.201C812.401 365.21 812.374 365.223 812.339 365.241C812.268 365.276 812.16 365.329 812.015 365.398C811.725 365.536 811.286 365.738 810.699 365.993C809.525 366.504 807.753 367.227 805.374 368.072C800.616 369.761 793.428 371.936 783.731 373.867C764.336 377.731 734.899 380.625 694.772 376.719C614.517 368.907 491.49 333.895 320.531 225.025C149.473 116.091 26.296 81.009 -54.1499 73.1785C-94.3728 69.2633 -123.909 72.1613 -143.401 76.0446C-153.147 77.9861 -160.381 80.1738 -165.183 81.8786C-167.585 82.731 -169.378 83.4627 -170.573 83.9825C-171.171 84.2424 -171.619 84.4493 -171.919 84.5919C-172.069 84.6632 -172.182 84.7184 -172.258 84.7561C-172.296 84.7749 -172.325 84.7894 -172.344 84.7993L-172.367 84.8107L-172.373 84.8139C-172.375 84.8147 -172.376 84.8152 -172.146 85.2595ZM-174.164 92.7466C-174.164 92.7468 -174.164 92.7469 -174.177 92.722C-174.198 92.6819 -174.253 92.577 -174.394 92.3027C-174.623 91.8584 -174.622 91.8579 -174.621 91.8571L-174.615 91.854L-174.592 91.8425C-174.573 91.8326 -174.544 91.8182 -174.506 91.7993C-174.466 91.7796 -174.416 91.7551 -174.356 91.726C-174.302 91.6995 -174.238 91.6691 -174.167 91.6351C-173.867 91.4926 -173.419 91.2856 -172.821 91.0257C-171.626 90.5059 -169.832 89.7742 -167.431 88.9218C-162.629 87.217 -155.395 85.0293 -145.649 83.0878C-126.157 79.2046 -96.6206 76.3065 -56.3977 80.2218C24.0482 88.0522 147.225 123.134 318.283 232.068C489.242 340.938 612.269 375.95 692.524 383.762C732.651 387.668 762.089 384.774 781.483 380.911C791.18 378.979 798.368 376.804 803.126 375.115C805.505 374.27 807.277 373.547 808.451 373.036C808.76 372.902 809.028 372.782 809.255 372.679C809.459 372.586 809.629 372.506 809.767 372.441C809.912 372.372 810.02 372.319 810.091 372.284C810.127 372.266 810.153 372.253 810.17 372.244L810.189 372.235L810.193 372.233C810.193 372.232 810.193 372.232 810.197 372.238C810.203 372.25 810.223 372.289 810.286 372.41L810.423 372.676L810.531 372.886C810.574 372.968 810.601 373.022 810.619 373.057C810.652 373.121 810.651 373.122 810.65 373.122L810.644 373.125L810.621 373.137C810.602 373.147 810.573 373.161 810.535 373.18C810.459 373.218 810.346 373.273 810.196 373.344C810.097 373.391 809.982 373.445 809.85 373.506C809.734 373.56 809.604 373.619 809.462 373.683C809.392 373.715 809.318 373.748 809.24 373.782C809.118 373.836 808.988 373.893 808.85 373.953C807.655 374.473 805.862 375.205 803.46 376.057C798.658 377.762 791.424 379.95 781.678 381.891C762.186 385.775 732.65 388.673 692.427 384.757C611.981 376.927 488.804 341.845 317.746 232.911C146.787 124.041 23.7597 89.0289 -56.4945 81.217C-96.6217 77.3112 -126.059 80.2048 -145.454 84.0685C-155.151 86.0004 -162.339 88.1751 -167.097 89.8642C-169.476 90.7087 -171.248 91.4319 -172.422 91.9427C-173.01 92.1982 -173.448 92.4005 -173.738 92.5383C-173.819 92.5768 -173.888 92.6102 -173.946 92.6384C-173.992 92.6607 -174.03 92.6797 -174.062 92.6953L-174.115 92.7221L-174.141 92.7349L-174.16 92.7444L-174.164 92.7466ZM-176.642 99.3447C-176.413 99.789 -176.412 99.789 -176.412 99.7886L-176.407 99.7864L-176.389 99.7769L-176.353 99.7588L-176.31 99.7373C-176.238 99.702 -176.13 99.6492 -175.985 99.5803C-175.695 99.4425 -175.257 99.2401 -174.67 98.9847C-173.495 98.4739 -171.724 97.7507 -169.344 96.9062C-164.586 95.2171 -157.399 93.0424 -147.701 91.1105C-128.307 87.2468 -98.8695 84.3532 -58.7423 88.2591C21.5119 96.0709 144.54 131.083 315.498 239.953C486.557 348.887 609.733 383.969 690.179 391.799C730.402 395.715 759.938 392.817 779.43 388.933C789.176 386.992 796.41 384.804 801.213 383.099C803.614 382.247 805.407 381.515 806.602 380.995C806.687 380.959 806.768 380.923 806.847 380.889L807.028 380.808C807.271 380.7 807.481 380.604 807.659 380.522C807.712 380.498 807.761 380.474 807.808 380.452C807.858 380.429 807.905 380.407 807.948 380.386C808.016 380.354 808.076 380.325 808.128 380.3C808.193 380.269 808.245 380.243 808.287 380.222L808.329 380.201L808.374 380.179L808.396 380.167L808.402 380.164C808.403 380.164 808.403 380.163 808.391 380.139C808.372 380.099 808.318 379.995 808.175 379.718L808.038 379.452L807.961 379.304L807.948 379.278C807.946 379.274 807.946 379.274 807.945 379.275L807.941 379.277L807.922 379.286L807.875 379.31L807.843 379.326C807.772 379.361 807.664 379.414 807.519 379.483C807.229 379.621 806.791 379.823 806.204 380.078C805.029 380.589 803.257 381.312 800.878 382.157C796.12 383.846 788.933 386.021 779.235 387.953C759.841 391.816 730.403 394.71 690.276 390.804C610.022 382.992 486.994 347.98 316.035 239.11C144.977 130.176 21.8004 95.0942 -58.6454 87.2638C-98.8684 83.3485 -128.405 86.2466 -147.897 90.1298C-157.643 92.0713 -164.877 94.259 -169.679 95.9638C-172.08 96.8162 -173.873 97.5479 -175.069 98.0677C-175.666 98.3276 -176.115 98.5345 -176.415 98.6771C-176.492 98.7138 -176.559 98.7463 -176.617 98.7743C-176.671 98.8006 -176.717 98.823 -176.754 98.8413L-176.807 98.868L-176.84 98.8845L-176.863 98.896L-176.869 98.8991C-176.87 98.8999 -176.871 98.9004 -176.642 99.3447ZM-178.66 106.832C-178.66 106.832 -178.661 106.832 -178.89 106.388C-179.119 105.944 -179.118 105.943 -179.117 105.942L-179.11 105.939L-179.088 105.928L-179.052 105.91L-179.002 105.884C-178.926 105.847 -178.813 105.792 -178.663 105.72C-178.363 105.578 -177.914 105.371 -177.317 105.111C-176.121 104.591 -174.328 103.859 -171.927 103.007C-167.125 101.302 -159.891 99.1145 -150.145 97.1729C-130.653 93.2897 -101.116 90.3917 -60.8934 94.3069C19.5524 102.137 142.729 137.219 313.787 246.153C484.746 355.024 607.774 390.036 688.028 397.847C728.155 401.753 757.593 398.86 776.987 394.996C786.685 393.064 793.872 390.889 798.63 389.2C801.009 388.356 802.781 387.632 803.956 387.122C804.543 386.866 804.981 386.664 805.271 386.526C805.416 386.457 805.524 386.404 805.595 386.369L805.63 386.352L805.674 386.33L805.693 386.32L805.697 386.318C805.698 386.318 805.698 386.318 805.7 386.321L805.709 386.339C805.721 386.361 805.744 386.406 805.79 386.495L805.928 386.762C806.024 386.949 806.08 387.058 806.112 387.12C806.156 387.206 806.155 387.207 806.154 387.207L806.148 387.21L806.126 387.222L806.086 387.242L806.039 387.265C805.963 387.303 805.85 387.358 805.7 387.429C805.4 387.572 804.952 387.779 804.354 388.039C803.159 388.558 801.366 389.29 798.965 390.143C794.162 391.847 786.928 394.035 777.183 395.977C757.69 399.86 728.154 402.758 687.931 398.843C607.485 391.012 484.309 355.931 313.25 246.996C142.292 138.126 19.264 103.114 -60.9903 95.3022C-101.117 91.3963 -130.555 94.2899 -149.949 98.1537C-159.647 100.086 -166.834 102.26 -171.592 103.949C-173.971 104.794 -175.743 105.517 -176.918 106.028C-177.505 106.283 -177.943 106.486 -178.233 106.623C-178.378 106.692 -178.486 106.745 -178.557 106.78L-178.594 106.799L-178.637 106.82L-178.655 106.83L-178.66 106.832ZM-181.138 113.431L-180.946 113.802C-180.908 113.875 -180.908 113.875 -180.907 113.875L-180.903 113.872L-180.884 113.863C-180.867 113.854 -180.841 113.841 -180.805 113.823C-180.734 113.788 -180.626 113.735 -180.481 113.666C-180.191 113.528 -179.753 113.326 -179.166 113.071C-177.991 112.56 -176.219 111.837 -173.84 110.992C-169.082 109.303 -161.895 107.128 -152.197 105.196C-132.803 101.333 -103.365 98.4391 -63.2381 102.345C17.0162 110.157 140.044 145.169 311.003 254.039C482.061 362.973 605.238 398.055 685.683 405.885C725.906 409.801 755.443 406.903 774.935 403.019C784.681 401.078 791.914 398.89 796.717 397.185C799.118 396.333 800.911 395.601 802.107 395.081C802.704 394.822 803.153 394.615 803.453 394.472C803.529 394.436 803.595 394.404 803.652 394.376L803.732 394.337L803.791 394.308L803.836 394.286C803.853 394.277 803.867 394.27 803.878 394.265L803.9 394.253L803.906 394.25C803.908 394.249 803.909 394.249 803.68 393.804L803.542 393.538L803.467 393.392L803.453 393.366C803.45 393.36 803.45 393.36 803.45 393.36L803.445 393.363L803.427 393.372C803.409 393.381 803.383 393.394 803.347 393.412C803.315 393.428 803.274 393.448 803.226 393.471C803.169 393.499 803.102 393.532 803.023 393.569C802.733 393.707 802.295 393.909 801.708 394.164C800.533 394.675 798.761 395.398 796.382 396.243C791.624 397.932 784.437 400.107 774.739 402.039C755.345 405.902 725.907 408.796 685.78 404.89C605.526 397.078 482.498 362.066 311.54 253.196C140.481 144.262 17.3047 109.18 -63.1412 101.35C-103.364 97.4345 -132.9 100.332 -152.393 104.216C-162.138 106.157 -169.372 108.345 -174.175 110.05C-176.576 110.902 -178.369 111.634 -179.565 112.154C-180.162 112.414 -180.61 112.62 -180.91 112.763C-181.06 112.834 -181.173 112.89 -181.249 112.927C-181.287 112.946 -181.316 112.961 -181.336 112.97L-181.358 112.982L-181.364 112.985C-181.366 112.986 -181.367 112.986 -181.138 113.431ZM-183.155 120.917C-183.156 120.918 -183.156 120.918 -183.385 120.473C-183.615 120.029 -183.614 120.029 -183.612 120.028L-183.606 120.025L-183.584 120.013L-183.535 119.989L-183.497 119.97C-183.421 119.932 -183.308 119.877 -183.158 119.806C-182.858 119.663 -182.41 119.456 -181.812 119.196C-180.617 118.677 -178.824 117.945 -176.423 117.093C-171.62 115.388 -164.386 113.2 -154.64 111.259C-135.148 107.375 -105.612 104.477 -65.389 108.392C15.0569 116.223 138.234 151.305 309.292 260.239C480.251 369.109 603.278 404.121 683.532 411.933C723.66 415.839 753.097 412.945 772.492 409.081C782.189 407.15 789.376 404.975 794.135 403.286C796.514 402.441 798.285 401.718 799.46 401.207C799.813 401.054 800.113 400.919 800.358 400.806C800.464 400.758 800.559 400.713 800.645 400.673L800.713 400.641L800.775 400.612L800.882 400.561C800.927 400.539 800.968 400.519 801.003 400.502C801.041 400.484 801.073 400.468 801.1 400.455L801.161 400.424L801.179 400.415L801.198 400.406L801.202 400.403C801.202 400.403 801.202 400.403 801.204 400.406L801.211 400.42L801.225 400.447L801.294 400.581L801.432 400.847C801.661 401.292 801.66 401.292 801.659 401.293L801.653 401.296L801.63 401.307C801.611 401.317 801.582 401.332 801.544 401.351L801.511 401.367C801.47 401.387 801.421 401.411 801.363 401.439C801.316 401.462 801.263 401.487 801.205 401.515L801.122 401.554L801.057 401.585C800.962 401.629 800.855 401.679 800.737 401.733C800.493 401.845 800.2 401.976 799.859 402.124C798.663 402.644 796.87 403.376 794.469 404.228C789.667 405.933 782.433 408.121 772.687 410.062C753.195 413.945 723.658 416.843 683.436 412.928C602.99 405.098 479.813 370.016 308.755 261.082C137.796 152.211 14.7684 117.2 -65.4858 109.388C-105.613 105.482 -135.051 108.376 -154.445 112.239C-164.142 114.171 -171.33 116.346 -176.088 118.035C-178.467 118.879 -180.239 119.603 -181.414 120.113C-182.001 120.369 -182.439 120.571 -182.729 120.709C-182.874 120.778 -182.982 120.831 -183.053 120.866C-183.089 120.884 -183.115 120.897 -183.132 120.906L-183.151 120.915L-183.155 120.917ZM-185.633 127.516C-185.404 127.96 -185.404 127.96 -185.403 127.96L-185.399 127.957L-185.38 127.948L-185.344 127.929L-185.301 127.908C-185.23 127.873 -185.122 127.82 -184.977 127.751C-184.687 127.613 -184.249 127.411 -183.661 127.156C-182.487 126.645 -180.715 125.922 -178.336 125.077C-173.578 123.388 -166.39 121.213 -156.693 119.281C-137.299 115.418 -107.861 112.524 -67.7338 116.43C12.5205 124.242 135.548 159.254 306.507 268.124C477.565 377.058 600.742 412.14 681.188 419.97C721.411 423.886 750.947 420.987 770.439 417.104C780.185 415.163 787.419 412.975 792.221 411.27C794.622 410.418 796.416 409.686 797.611 409.166C798.209 408.906 798.657 408.7 798.957 408.557C799.107 408.486 799.22 408.43 799.296 408.393L799.334 408.374L799.382 408.349L799.405 408.338L799.411 408.335C799.412 408.334 799.413 408.334 799.184 407.889L799.047 407.623C798.976 407.486 798.959 407.454 798.955 407.447C798.954 407.445 798.954 407.445 798.954 407.445L798.95 407.448L798.931 407.457C798.914 407.466 798.887 407.479 798.852 407.497C798.781 407.532 798.673 407.585 798.528 407.654C798.238 407.792 797.799 407.994 797.212 408.249C796.038 408.76 794.266 409.483 791.887 410.328C787.128 412.017 779.941 414.192 770.244 416.124C750.849 419.987 721.412 422.881 681.284 418.975C601.03 411.163 478.003 376.151 307.044 267.281C135.986 158.347 12.8089 123.265 -67.6369 115.435C-107.86 111.519 -137.396 114.417 -156.888 118.301C-166.634 120.242 -173.868 122.43 -178.67 124.135C-181.072 124.987 -182.865 125.719 -184.06 126.239C-184.658 126.498 -185.106 126.705 -185.406 126.848C-185.556 126.919 -185.669 126.975 -185.745 127.012L-185.788 127.033L-185.831 127.055L-185.854 127.067L-185.86 127.07C-185.862 127.071 -185.863 127.071 -185.633 127.516ZM-187.651 135.002C-187.652 135.003 -187.652 135.003 -187.881 134.559C-188.11 134.114 -188.109 134.114 -188.108 134.113L-188.102 134.11L-188.079 134.098C-188.06 134.088 -188.031 134.074 -187.993 134.055C-187.917 134.017 -187.804 133.962 -187.654 133.891C-187.354 133.748 -186.906 133.541 -186.308 133.282C-185.113 132.762 -183.319 132.03 -180.918 131.178C-176.116 129.473 -168.882 127.285 -159.136 125.344C-139.644 121.46 -110.108 118.562 -69.8847 122.478C10.5612 130.308 133.738 165.39 304.796 274.324C475.755 383.194 598.782 418.206 679.037 426.018C719.164 429.924 748.602 427.03 767.996 423.167C777.693 421.235 784.881 419.06 789.639 417.371C792.018 416.526 793.79 415.803 794.964 415.292C795.552 415.037 795.99 414.835 796.28 414.697C796.425 414.628 796.533 414.575 796.604 414.54C796.64 414.522 796.666 414.509 796.683 414.5L796.702 414.491L796.706 414.488C796.706 414.488 796.706 414.488 796.707 414.489L796.71 414.495C796.717 414.509 796.738 414.549 796.799 414.666L796.936 414.932C797.166 415.377 797.165 415.377 797.163 415.378L797.157 415.381L797.134 415.392C797.115 415.402 797.086 415.417 797.048 415.436C797.011 415.454 796.964 415.477 796.909 415.504C796.852 415.532 796.785 415.564 796.709 415.6C796.409 415.743 795.961 415.949 795.363 416.209C794.168 416.729 792.375 417.461 789.973 418.313C785.171 420.018 777.937 422.206 768.191 424.147C748.699 428.03 719.163 430.929 678.94 427.013C598.494 419.183 475.317 384.101 304.259 275.167C133.3 166.297 10.2727 131.285 -69.9816 123.473C-110.109 119.567 -139.546 122.461 -158.941 126.324C-168.638 128.256 -175.826 130.431 -180.584 132.12C-182.963 132.965 -184.735 133.688 -185.909 134.199C-186.497 134.454 -186.935 134.656 -187.225 134.794C-187.37 134.863 -187.478 134.916 -187.549 134.951L-187.604 134.978L-187.628 134.991L-187.647 135L-187.651 135.002ZM-189.915 142.016L-189.902 142.041C-189.899 142.046 -189.899 142.046 -189.899 142.046L-189.895 142.043L-189.876 142.034C-189.859 142.025 -189.832 142.012 -189.797 141.994C-189.726 141.959 -189.618 141.906 -189.473 141.837C-189.183 141.699 -188.745 141.497 -188.157 141.242C-186.983 140.731 -185.211 140.008 -182.832 139.163C-178.074 137.474 -170.886 135.299 -161.189 133.367C-141.794 129.504 -112.357 126.61 -72.2295 130.516C8.02476 138.328 131.052 173.34 302.011 282.21C473.069 391.144 596.246 426.226 676.692 434.056C716.915 437.972 746.451 435.074 765.943 431.19C775.689 429.249 782.923 427.061 787.725 425.356C790.127 424.504 791.92 423.772 793.115 423.252C793.713 422.993 794.161 422.786 794.461 422.643C794.611 422.572 794.724 422.517 794.8 422.479C794.838 422.46 794.867 422.446 794.886 422.436L794.909 422.424L794.915 422.421C794.917 422.42 794.918 422.42 794.688 421.975L794.551 421.709L794.484 421.579C794.471 421.554 794.464 421.542 794.461 421.537C794.458 421.531 794.458 421.531 794.458 421.531L794.454 421.534L794.435 421.543C794.418 421.552 794.392 421.565 794.356 421.583C794.319 421.601 794.272 421.624 794.214 421.652L794.163 421.677L794.074 421.72L794.032 421.74C793.742 421.878 793.304 422.08 792.716 422.335C791.542 422.846 789.77 423.569 787.391 424.414C782.633 426.103 775.445 428.278 765.748 430.21C746.354 434.073 716.916 436.967 676.789 433.061C596.534 425.249 473.507 390.237 302.548 281.367C131.49 172.433 8.31321 137.351 -72.1326 129.521C-112.356 125.605 -141.892 128.503 -161.384 132.387C-171.13 134.328 -178.364 136.516 -183.166 138.221C-185.567 139.073 -187.361 139.805 -188.556 140.325C-189.154 140.585 -189.602 140.791 -189.902 140.934C-190.052 141.005 -190.165 141.061 -190.241 141.098C-190.279 141.117 -190.308 141.132 -190.327 141.141L-190.35 141.153L-190.356 141.156C-190.357 141.157 -190.358 141.157 -190.129 141.602C-189.993 141.865 -189.938 141.973 -189.915 142.016ZM-192.147 149.088C-192.147 149.089 -192.148 149.089 -192.377 148.644C-192.606 148.2 -192.605 148.2 -192.604 148.199L-192.597 148.196L-192.575 148.184C-192.555 148.174 -192.527 148.16 -192.489 148.141C-192.413 148.103 -192.3 148.048 -192.15 147.977C-191.85 147.834 -191.401 147.627 -190.804 147.367C-189.608 146.848 -187.815 146.116 -185.414 145.264C-180.612 143.559 -173.378 141.371 -163.632 139.43C-144.14 135.546 -114.603 132.648 -74.3804 136.563C6.06543 144.394 129.242 179.476 300.3 288.41C471.259 397.28 594.287 432.292 674.541 440.104C714.668 444.01 744.106 441.116 763.5 437.252C773.198 435.321 780.385 433.146 785.143 431.457C787.522 430.612 789.294 429.889 790.469 429.378C791.056 429.123 791.494 428.92 791.784 428.783C791.845 428.754 791.899 428.728 791.946 428.705C792.013 428.673 792.067 428.646 792.108 428.626C792.144 428.608 792.17 428.595 792.187 428.586L792.206 428.576L792.21 428.574C792.211 428.574 792.211 428.574 792.303 428.752L792.441 429.018C792.67 429.462 792.669 429.463 792.667 429.464L792.661 429.467L792.639 429.478C792.619 429.488 792.59 429.503 792.552 429.522C792.476 429.559 792.363 429.614 792.213 429.686C791.913 429.828 791.465 430.035 790.867 430.295C789.672 430.815 787.879 431.547 785.478 432.399C780.675 434.104 773.441 436.292 763.696 438.233C744.203 442.116 714.667 445.014 674.444 441.099C593.998 433.269 470.822 398.187 299.763 289.253C128.805 180.382 5.77695 145.371 -74.4773 137.559C-114.604 133.653 -144.042 136.547 -163.436 140.41C-173.134 142.342 -180.321 144.517 -185.079 146.206C-187.459 147.05 -189.23 147.774 -190.405 148.284C-190.992 148.54 -191.43 148.742 -191.72 148.88C-191.865 148.949 -191.973 149.002 -192.044 149.037C-192.08 149.055 -192.106 149.068 -192.124 149.077L-192.142 149.086L-192.147 149.088ZM-194.625 155.687C-194.395 156.132 -194.395 156.132 -194.395 156.131L-194.39 156.129L-194.371 156.119C-194.354 156.111 -194.328 156.097 -194.292 156.08C-194.221 156.045 -194.113 155.992 -193.968 155.923C-193.678 155.785 -193.24 155.583 -192.653 155.327C-191.478 154.816 -189.706 154.093 -187.327 153.249C-182.569 151.56 -175.382 149.385 -165.684 147.453C-146.29 143.589 -116.852 140.696 -76.7251 144.602C3.52919 152.413 126.557 187.425 297.515 296.296C468.574 405.23 591.75 440.312 672.196 448.142C712.419 452.057 741.956 449.159 761.448 445.276C771.193 443.334 778.427 441.147 783.23 439.442C785.631 438.59 787.424 437.858 788.62 437.338C788.988 437.178 789.299 437.038 789.554 436.921C789.713 436.848 789.85 436.783 789.966 436.729C790.116 436.657 790.228 436.602 790.304 436.564C790.342 436.546 790.371 436.531 790.391 436.521L790.413 436.51L790.419 436.507C790.421 436.506 790.422 436.505 790.193 436.061L790.055 435.795L789.977 435.644C789.963 435.617 789.963 435.617 789.963 435.617L789.958 435.619L789.94 435.629L789.894 435.652L789.86 435.668C789.789 435.704 789.681 435.756 789.536 435.825C789.246 435.963 788.808 436.166 788.221 436.421C787.046 436.932 785.274 437.655 782.895 438.5C778.137 440.189 770.95 442.363 761.252 444.295C741.858 448.159 712.42 451.053 672.293 447.147C592.039 439.335 469.011 404.323 298.053 295.452C126.994 186.518 3.81762 151.437 -76.6282 143.606C-116.851 139.691 -146.387 142.589 -165.88 146.472C-175.625 148.414 -182.859 150.601 -187.662 152.306C-190.063 153.159 -191.856 153.89 -193.052 154.41C-193.649 154.67 -194.097 154.877 -194.397 155.02C-194.547 155.091 -194.66 155.146 -194.736 155.184C-194.774 155.203 -194.803 155.217 -194.823 155.227L-194.845 155.238L-194.851 155.242C-194.853 155.242 -194.854 155.243 -194.625 155.687ZM-196.642 163.174C-196.643 163.175 -196.643 163.175 -196.873 162.73C-197.102 162.286 -197.101 162.286 -197.099 162.285L-197.093 162.282L-197.071 162.27C-197.051 162.26 -197.022 162.246 -196.984 162.227C-196.908 162.189 -196.795 162.134 -196.645 162.063C-196.345 161.92 -195.897 161.713 -195.3 161.453C-194.104 160.934 -192.311 160.202 -189.91 159.35C-185.107 157.645 -177.873 155.457 -168.128 153.516C-148.635 149.632 -119.099 146.734 -78.8762 150.649C1.56968 158.48 124.746 193.562 295.805 302.496C466.763 411.366 589.791 446.378 670.045 454.19C710.172 458.096 739.61 455.202 759.004 451.338C768.702 449.407 775.889 447.232 780.647 445.543C783.026 444.698 784.798 443.975 785.973 443.464C786.56 443.209 786.998 443.006 787.288 442.869L787.336 442.846L787.393 442.819L787.46 442.786L787.536 442.749L787.612 442.712L787.653 442.691L787.692 442.672L787.71 442.662L787.715 442.66C787.715 442.66 787.715 442.66 787.73 442.689L787.807 442.838L787.945 443.104C788.023 443.256 788.075 443.356 788.109 443.422C788.157 443.516 788.169 443.541 788.171 443.547L788.172 443.549C788.172 443.55 788.172 443.55 788.171 443.55L788.165 443.553L788.143 443.564C788.123 443.574 788.095 443.589 788.057 443.608C788.022 443.625 787.98 443.645 787.931 443.669L787.85 443.709C787.809 443.728 787.765 443.749 787.718 443.772C787.418 443.914 786.969 444.121 786.372 444.381C785.176 444.901 783.383 445.633 780.982 446.485C776.179 448.19 768.946 450.378 759.2 452.319C739.708 456.202 710.171 459.1 669.948 455.185C589.503 447.355 466.326 412.273 295.268 303.339C124.309 194.468 1.28123 159.457 -78.973 151.645C-119.1 147.739 -148.538 150.633 -167.932 154.496C-177.63 156.428 -184.817 158.603 -189.575 160.292C-191.954 161.136 -193.726 161.86 -194.901 162.37C-195.488 162.626 -195.926 162.828 -196.216 162.966C-196.361 163.035 -196.469 163.088 -196.54 163.123L-196.592 163.149L-196.619 163.163L-196.638 163.172L-196.642 163.174ZM-199.12 169.772C-198.891 170.217 -198.891 170.217 -198.89 170.216L-198.886 170.214L-198.867 170.205C-198.85 170.196 -198.824 170.183 -198.788 170.165C-198.717 170.13 -198.609 170.077 -198.464 170.008C-198.174 169.87 -197.736 169.668 -197.148 169.412C-195.974 168.902 -194.202 168.178 -191.823 167.334C-187.065 165.645 -179.877 163.47 -170.18 161.538C-150.786 157.675 -121.348 154.781 -81.2208 158.687C-0.966559 166.499 122.061 201.51 293.02 310.381C464.078 419.315 587.255 454.397 667.701 462.227C707.924 466.142 737.46 463.244 756.952 459.361C766.698 457.42 773.932 455.232 778.734 453.527C781.135 452.675 782.929 451.943 784.124 451.423C784.722 451.163 785.17 450.956 785.47 450.814C785.52 450.79 785.566 450.768 785.608 450.748L785.695 450.705L785.772 450.668L785.809 450.65C785.847 450.631 785.876 450.616 785.895 450.606L785.918 450.595L785.924 450.592C785.925 450.591 785.926 450.59 785.697 450.146L785.56 449.88C785.468 449.702 785.467 449.702 785.467 449.702L785.463 449.704L785.444 449.714C785.427 449.723 785.4 449.736 785.365 449.754C785.294 449.789 785.186 449.842 785.041 449.911C784.751 450.048 784.312 450.251 783.725 450.506C782.551 451.017 780.779 451.74 778.4 452.585C773.641 454.274 766.454 456.448 756.757 458.38C737.362 462.244 707.925 465.138 667.797 461.232C587.543 453.42 464.516 418.408 293.557 309.538C122.499 200.604 -0.678094 165.522 -81.1239 157.691C-121.347 153.776 -150.883 156.674 -170.375 160.558C-180.121 162.499 -187.355 164.687 -192.157 166.392C-194.559 167.244 -196.352 167.976 -197.547 168.495C-198.145 168.755 -198.593 168.962 -198.893 169.105C-199.043 169.176 -199.156 169.231 -199.232 169.269L-199.282 169.294L-199.319 169.312L-199.341 169.324L-199.347 169.327C-199.349 169.328 -199.35 169.328 -199.12 169.772ZM-201.138 177.259C-201.139 177.26 -201.139 177.26 -201.368 176.815C-201.597 176.371 -201.596 176.371 -201.595 176.37L-201.589 176.367L-201.566 176.355C-201.547 176.345 -201.518 176.331 -201.48 176.312C-201.404 176.274 -201.291 176.219 -201.141 176.148C-200.841 176.005 -200.393 175.798 -199.795 175.538C-198.6 175.019 -196.806 174.287 -194.405 173.435C-189.603 171.73 -182.369 169.542 -172.623 167.601C-153.131 163.717 -123.595 160.819 -83.3717 164.734C-2.92587 172.565 120.251 207.647 291.309 316.581C462.268 425.451 585.295 460.463 665.55 468.275C705.677 472.181 735.115 469.287 754.509 465.423C764.206 463.492 771.394 461.317 776.152 459.628C778.531 458.783 780.303 458.06 781.477 457.549C782.065 457.294 782.503 457.091 782.793 456.954C782.938 456.885 783.046 456.832 783.117 456.797L783.164 456.773L783.196 456.757L783.215 456.748L783.219 456.745C783.22 456.745 783.22 456.745 783.312 456.923L783.449 457.189C783.679 457.634 783.678 457.634 783.676 457.635L783.67 457.638L783.647 457.649L783.619 457.664L783.561 457.693C783.485 457.73 783.372 457.786 783.222 457.857C782.922 457.999 782.474 458.206 781.876 458.466C780.681 458.986 778.888 459.718 776.486 460.57C771.684 462.275 764.45 464.463 754.704 466.404C735.212 470.287 705.676 473.185 665.453 469.27C585.007 461.44 461.83 426.358 290.772 317.424C119.813 208.553 -3.21433 173.542 -83.4686 165.73C-123.596 161.824 -153.033 164.718 -172.428 168.581C-182.125 170.513 -189.313 172.688 -194.071 174.377C-196.45 175.221 -198.222 175.945 -199.396 176.455C-199.984 176.711 -200.422 176.913 -200.712 177.051C-200.765 177.076 -200.813 177.1 -200.857 177.12L-200.907 177.145L-200.959 177.17L-201.036 177.208L-201.082 177.231L-201.115 177.248L-201.134 177.257L-201.138 177.259ZM-203.616 183.858C-203.387 184.303 -203.387 184.303 -203.386 184.302L-203.382 184.3L-203.363 184.29C-203.346 184.282 -203.319 184.268 -203.284 184.251C-203.213 184.216 -203.105 184.163 -202.96 184.094C-202.67 183.956 -202.232 183.754 -201.644 183.498C-200.47 182.987 -198.698 182.264 -196.319 181.42C-191.561 179.731 -184.373 177.556 -174.676 175.624C-155.281 171.76 -125.844 168.867 -85.7165 172.773C-5.46228 180.584 117.565 215.596 288.524 324.467C459.582 433.401 582.759 468.482 663.205 476.313C703.428 480.228 732.964 477.33 752.456 473.447C762.202 471.505 769.436 469.318 774.238 467.613C776.64 466.761 778.433 466.029 779.628 465.509C780.226 465.249 780.674 465.042 780.974 464.9C781.124 464.828 781.237 464.773 781.313 464.735C781.351 464.717 781.38 464.702 781.399 464.692L781.422 464.681L781.428 464.678C781.428 464.678 781.428 464.677 781.428 464.677C781.428 464.676 781.427 464.672 781.422 464.664C781.408 464.634 781.359 464.539 781.201 464.232L781.064 463.966C780.972 463.788 780.972 463.788 780.971 463.788L780.967 463.79L780.948 463.8L780.92 463.814L780.869 463.839C780.839 463.854 780.803 463.872 780.76 463.893C780.7 463.922 780.629 463.956 780.545 463.996C780.255 464.134 779.817 464.337 779.229 464.592C778.055 465.103 776.283 465.826 773.904 466.67C769.146 468.36 761.958 470.534 752.261 472.466C732.867 476.33 703.429 479.224 663.302 475.318C583.047 467.506 460.02 432.494 289.061 323.623C118.003 214.689 -5.17382 179.608 -85.6197 171.777C-125.843 167.862 -155.379 170.76 -174.871 174.643C-184.617 176.585 -191.851 178.772 -196.653 180.477C-199.054 181.33 -200.848 182.061 -202.043 182.581C-202.641 182.841 -203.089 183.048 -203.389 183.191C-203.539 183.262 -203.652 183.317 -203.728 183.355C-203.766 183.374 -203.795 183.388 -203.814 183.398L-203.837 183.409L-203.843 183.413C-203.844 183.413 -203.845 183.414 -203.616 183.858ZM-205.634 191.345C-205.634 191.346 -205.635 191.346 -205.864 190.901C-206.093 190.457 -206.092 190.457 -206.091 190.456L-206.084 190.453L-206.062 190.441C-206.042 190.431 -206.014 190.417 -205.976 190.398C-205.9 190.36 -205.787 190.305 -205.637 190.234C-205.337 190.091 -204.888 189.884 -204.291 189.624C-203.095 189.105 -201.302 188.373 -198.901 187.52C-194.099 185.816 -186.865 183.628 -177.119 181.686C-157.627 177.803 -128.09 174.905 -87.8674 178.82C-7.42161 186.651 115.755 221.732 286.813 330.666C457.772 439.537 580.8 474.549 661.054 482.361C701.181 486.267 730.619 483.373 750.013 479.509C759.711 477.577 766.898 475.403 771.656 473.714C774.035 472.869 775.807 472.146 776.982 471.635C777.569 471.38 778.007 471.177 778.297 471.04C778.442 470.971 778.55 470.918 778.621 470.883C778.657 470.865 778.683 470.852 778.7 470.843L778.719 470.833L778.723 470.831C778.724 470.831 778.724 470.831 778.816 471.009L778.954 471.275C779.045 471.451 779.099 471.558 779.132 471.622C779.182 471.72 779.181 471.72 779.18 471.721L779.174 471.724L779.152 471.735L779.113 471.755L779.065 471.778C779.017 471.802 778.954 471.833 778.876 471.871C778.831 471.893 778.781 471.917 778.726 471.943C778.646 471.981 778.555 472.024 778.453 472.071C778.385 472.103 778.313 472.136 778.236 472.171C777.997 472.28 777.712 472.408 777.38 472.552C776.185 473.072 774.392 473.804 771.991 474.656C767.188 476.361 759.954 478.548 750.209 480.49C730.716 484.373 701.18 487.271 660.957 483.356C580.511 475.526 457.335 440.444 286.276 331.51C115.318 222.639 -7.71007 187.627 -87.9643 179.816C-128.091 175.91 -157.529 178.803 -176.923 182.667C-186.621 184.599 -193.808 186.774 -198.566 188.463C-200.946 189.307 -202.717 190.031 -203.892 190.541C-204.479 190.797 -204.917 190.999 -205.207 191.137C-205.288 191.175 -205.358 191.209 -205.416 191.237C-205.462 191.259 -205.5 191.278 -205.532 191.294C-205.567 191.312 -205.593 191.325 -205.611 191.333L-205.629 191.343L-205.634 191.345ZM-208.112 197.943C-207.883 198.388 -207.882 198.388 -207.882 198.387L-207.877 198.385L-207.859 198.375C-207.841 198.367 -207.815 198.354 -207.779 198.336C-207.708 198.301 -207.6 198.248 -207.455 198.179C-207.165 198.041 -206.727 197.839 -206.14 197.583C-204.965 197.073 -203.193 196.349 -200.814 195.505C-196.056 193.816 -188.869 191.641 -179.171 189.709C-159.777 185.845 -130.339 182.952 -90.2123 186.858C-9.95802 194.669 113.07 229.681 284.028 338.552C455.087 447.486 578.263 482.568 658.709 490.398C698.932 494.313 728.468 491.415 747.961 487.532C757.706 485.59 764.94 483.403 769.743 481.698C772.144 480.846 773.937 480.114 775.132 479.594C775.73 479.334 776.178 479.127 776.478 478.985C776.628 478.913 776.741 478.858 776.817 478.82C776.855 478.802 776.884 478.787 776.904 478.777L776.926 478.766L776.932 478.763C776.934 478.762 776.935 478.761 776.706 478.317L776.568 478.051C776.522 477.961 776.499 477.917 776.487 477.895C776.476 477.873 776.476 477.873 776.475 477.873L776.471 477.875L776.452 477.885L776.431 477.895L776.373 477.925C776.302 477.96 776.194 478.013 776.049 478.081C775.759 478.219 775.321 478.422 774.734 478.677C773.559 479.188 771.787 479.911 769.408 480.756C764.65 482.445 757.463 484.619 747.765 486.551C728.371 490.415 698.933 493.309 658.806 489.403C578.552 481.591 455.524 446.579 284.565 337.708C113.507 228.774 -9.66952 193.693 -90.1154 185.862C-130.338 181.947 -159.875 184.845 -179.367 188.728C-189.113 190.67 -196.346 192.858 -201.149 194.562C-203.55 195.415 -205.343 196.147 -206.539 196.666C-207.136 196.926 -207.585 197.133 -207.885 197.276C-208.035 197.347 -208.148 197.402 -208.224 197.44L-208.283 197.47L-208.31 197.483L-208.332 197.495L-208.339 197.498C-208.34 197.499 -208.341 197.499 -208.112 197.943ZM-210.129 205.43C-210.13 205.431 -210.13 205.431 -210.36 204.986C-210.589 204.542 -210.588 204.541 -210.586 204.541L-210.58 204.538L-210.558 204.526C-210.538 204.516 -210.509 204.502 -210.471 204.483C-210.395 204.445 -210.282 204.39 -210.132 204.319C-209.832 204.176 -209.384 203.969 -208.787 203.709C-207.591 203.189 -205.798 202.458 -203.397 201.605C-198.594 199.901 -191.36 197.713 -181.615 195.771C-162.122 191.888 -132.586 188.99 -92.3631 192.905C-11.9173 200.736 111.259 235.817 282.318 344.751C453.276 453.622 576.304 488.634 656.558 496.446C696.685 500.352 726.123 497.458 745.517 493.594C755.215 491.662 762.402 489.488 767.16 487.799C769.539 486.954 771.311 486.231 772.486 485.72C773.073 485.465 773.511 485.262 773.801 485.124C773.946 485.056 774.054 485.003 774.125 484.967L774.156 484.953L774.205 484.928L774.223 484.918L774.228 484.916C774.228 484.916 774.228 484.916 774.32 485.094L774.458 485.36C774.687 485.804 774.686 485.805 774.684 485.806L774.678 485.809L774.656 485.82L774.629 485.834L774.57 485.863C774.494 485.901 774.381 485.956 774.231 486.028C773.931 486.17 773.482 486.377 772.885 486.637C771.689 487.157 769.896 487.889 767.495 488.741C762.692 490.446 755.459 492.633 745.713 494.575C726.221 498.458 696.684 501.356 656.461 497.441C576.016 489.611 452.839 454.529 281.781 345.595C110.822 236.724 -12.2058 201.712 -92.46 193.901C-132.587 189.995 -162.025 192.888 -181.419 196.752C-191.117 198.684 -198.304 200.859 -203.062 202.548C-205.441 203.392 -207.213 204.116 -208.388 204.626C-208.975 204.882 -209.413 205.084 -209.703 205.222C-209.848 205.291 -209.956 205.344 -210.027 205.379C-210.063 205.397 -210.089 205.41 -210.106 205.418L-210.125 205.428L-210.129 205.43ZM-212.397 212.436C-212.378 212.474 -212.378 212.473 -212.377 212.473L-212.373 212.471L-212.354 212.462L-212.309 212.439L-212.275 212.422C-212.204 212.387 -212.096 212.334 -211.951 212.265C-211.661 212.127 -211.223 211.925 -210.636 211.669C-209.461 211.159 -207.689 210.435 -205.31 209.591C-200.552 207.902 -193.364 205.727 -183.667 203.795C-164.273 199.931 -134.835 197.038 -94.7078 200.944C-14.4536 208.756 108.574 243.767 279.533 352.638C450.591 461.572 573.768 496.654 654.214 504.484C694.436 508.399 723.973 505.501 743.465 501.618C753.211 499.676 760.445 497.489 765.247 495.784C767.648 494.932 769.442 494.2 770.637 493.68C771.235 493.42 771.683 493.213 771.983 493.071C772.133 492.999 772.246 492.944 772.322 492.907C772.36 492.888 772.389 492.873 772.408 492.863L772.431 492.852L772.437 492.849C772.438 492.848 772.439 492.847 772.21 492.403L772.073 492.137C771.981 491.959 771.98 491.959 771.98 491.959L771.976 491.961L771.957 491.971L771.919 491.99L771.878 492.011C771.806 492.046 771.699 492.099 771.554 492.168C771.263 492.305 770.825 492.508 770.238 492.763C769.063 493.274 767.292 493.997 764.913 494.842C760.154 496.531 752.967 498.705 743.27 500.637C723.875 504.501 694.438 507.395 654.31 503.489C574.056 495.677 451.029 460.665 280.07 351.795C109.012 242.86 -14.1651 207.779 -94.6109 199.948C-134.834 196.033 -164.37 198.931 -183.862 202.814C-193.608 204.756 -200.842 206.944 -205.644 208.648C-208.046 209.501 -209.839 210.233 -211.034 210.752C-211.632 211.012 -212.08 211.219 -212.38 211.362L-212.468 211.404L-212.567 211.452C-212.611 211.473 -212.649 211.492 -212.682 211.508L-212.719 211.526C-212.757 211.545 -212.786 211.559 -212.806 211.569L-212.828 211.581L-212.834 211.584C-212.836 211.585 -212.837 211.585 -212.607 212.029L-212.486 212.265L-212.397 212.436ZM-214.625 219.516C-214.626 219.516 -214.626 219.517 -214.855 219.072C-215.085 218.628 -215.084 218.627 -215.082 218.627L-215.076 218.623L-215.053 218.612L-215.035 218.602L-214.967 218.569C-214.891 218.531 -214.778 218.476 -214.628 218.405C-214.328 218.262 -213.88 218.055 -213.282 217.795C-212.087 217.275 -210.294 216.544 -207.892 215.691C-203.09 213.986 -195.856 211.799 -186.11 209.857C-166.618 205.974 -137.082 203.076 -96.8589 206.991C-16.4131 214.822 106.764 249.903 277.822 358.837C448.781 467.708 571.808 502.72 652.063 510.532C692.19 514.438 721.627 511.544 741.022 507.68C750.719 505.748 757.907 503.574 762.665 501.884C765.044 501.04 766.816 500.317 767.99 499.806C768.577 499.55 769.016 499.348 769.306 499.21C769.451 499.141 769.559 499.089 769.63 499.053L769.676 499.03L769.709 499.014L769.728 499.004L769.732 499.002C769.732 499.002 769.733 499.002 769.825 499.18L769.962 499.446C770.191 499.89 770.19 499.891 770.189 499.892L770.183 499.895L770.16 499.906L770.128 499.922L770.074 499.949C769.998 499.987 769.885 500.042 769.735 500.114C769.435 500.256 768.987 500.463 768.389 500.723C767.194 501.243 765.4 501.974 762.999 502.827C758.197 504.532 750.963 506.719 741.217 508.661C721.725 512.544 692.189 515.442 651.966 511.527C571.52 503.696 448.343 468.615 277.285 359.681C106.326 250.81 -16.7015 215.798 -96.9558 207.987C-137.083 204.081 -166.521 206.974 -185.915 210.838C-195.612 212.77 -202.8 214.945 -207.558 216.634C-209.937 217.478 -211.709 218.201 -212.883 218.712C-213.471 218.968 -213.909 219.17 -214.199 219.308C-214.344 219.377 -214.452 219.43 -214.523 219.465C-214.559 219.482 -214.585 219.496 -214.602 219.504L-214.621 219.514L-214.625 219.516ZM-217.103 226.115C-216.874 226.56 -216.874 226.559 -216.873 226.559L-216.869 226.557L-216.85 226.547C-216.833 226.539 -216.806 226.525 -216.771 226.508C-216.73 226.487 -216.676 226.461 -216.61 226.429L-216.548 226.399L-216.447 226.351C-216.157 226.213 -215.719 226.011 -215.131 225.755C-213.957 225.244 -212.185 224.521 -209.806 223.677C-205.048 221.988 -197.86 219.813 -188.163 217.881C-168.768 214.017 -139.331 211.124 -99.2035 215.03C-18.9493 222.841 104.078 257.853 275.037 366.724C446.095 475.658 569.272 510.739 649.718 518.57C689.941 522.485 719.477 519.587 738.969 515.704C748.715 513.762 755.949 511.575 760.751 509.87C763.153 509.017 764.946 508.286 766.141 507.766C766.739 507.506 767.187 507.299 767.487 507.157C767.52 507.141 767.551 507.126 767.58 507.112L767.653 507.077C767.723 507.043 767.781 507.015 767.826 506.992C767.864 506.973 767.893 506.959 767.912 506.949L767.935 506.938L767.941 506.935C767.942 506.934 767.943 506.934 767.899 506.849L767.819 506.692L767.714 506.489L767.577 506.223C767.485 506.045 767.485 506.045 767.484 506.045L767.48 506.047L767.461 506.057C767.444 506.065 767.418 506.079 767.382 506.096C767.347 506.114 767.302 506.136 767.249 506.162C767.194 506.188 767.131 506.219 767.058 506.253C766.768 506.391 766.33 506.593 765.742 506.849C764.568 507.36 762.796 508.083 760.417 508.927C755.659 510.617 748.471 512.791 738.774 514.723C719.38 518.587 689.942 521.481 649.815 517.575C569.56 509.763 446.533 474.751 275.574 365.88C104.516 256.946 -18.6608 221.865 -99.1067 214.034C-139.33 210.119 -168.866 213.017 -188.358 216.9C-198.104 218.842 -205.338 221.029 -210.14 222.734C-212.541 223.587 -214.335 224.318 -215.53 224.838C-216.128 225.098 -216.576 225.305 -216.876 225.448C-217.026 225.519 -217.139 225.574 -217.215 225.612L-217.282 225.645L-217.301 225.655L-217.324 225.666L-217.33 225.67C-217.331 225.67 -217.332 225.671 -217.103 226.115ZM-219.121 233.601C-219.121 233.601 -219.122 233.602 -219.351 233.157C-219.58 232.713 -219.579 232.712 -219.578 232.712L-219.572 232.708L-219.549 232.697C-219.529 232.687 -219.501 232.673 -219.463 232.654C-219.387 232.616 -219.274 232.561 -219.124 232.49C-218.824 232.347 -218.375 232.14 -217.778 231.88C-216.582 231.36 -214.789 230.629 -212.388 229.776C-207.586 228.071 -200.352 225.884 -190.606 223.942C-171.114 220.059 -141.577 217.161 -101.354 221.076C-20.9086 228.907 102.268 263.988 273.326 372.922C444.285 481.793 567.313 516.805 647.567 524.617C687.694 528.523 717.132 525.629 736.526 521.765C746.224 519.833 753.411 517.659 758.169 515.969C760.548 515.125 762.32 514.402 763.495 513.891C763.742 513.784 763.962 513.686 764.156 513.598L764.239 513.56C764.371 513.501 764.489 513.446 764.594 513.397C764.674 513.36 764.745 513.326 764.81 513.295C764.955 513.226 765.063 513.174 765.134 513.138C765.17 513.121 765.196 513.107 765.213 513.099L765.232 513.089L765.236 513.087C765.237 513.087 765.237 513.087 765.247 513.107L765.283 513.175L765.329 513.265L765.466 513.531C765.585 513.761 765.642 513.872 765.669 513.926C765.695 513.976 765.694 513.976 765.693 513.977L765.687 513.98L765.665 513.991C765.645 514.001 765.616 514.016 765.578 514.034C765.502 514.072 765.389 514.127 765.239 514.199C764.939 514.341 764.491 514.548 763.893 514.808C762.698 515.328 760.905 516.059 758.504 516.912C753.701 518.617 746.467 520.804 736.721 522.746C717.229 526.629 687.693 529.527 647.47 525.612C567.024 517.781 443.848 482.7 272.789 373.766C101.831 264.895 -21.1971 229.883 -101.451 222.072C-141.578 218.166 -171.016 221.059 -190.41 224.923C-200.108 226.855 -207.295 229.03 -212.053 230.719C-214.433 231.563 -216.204 232.286 -217.379 232.797C-217.966 233.053 -218.404 233.255 -218.694 233.393C-218.749 233.419 -218.799 233.443 -218.843 233.464C-218.916 233.499 -218.974 233.528 -219.019 233.55C-219.054 233.567 -219.08 233.581 -219.098 233.589L-219.116 233.599L-219.121 233.601ZM-221.599 240.2C-221.37 240.645 -221.369 240.645 -221.369 240.644L-221.364 240.642L-221.346 240.633C-221.328 240.624 -221.302 240.611 -221.266 240.593C-221.195 240.558 -221.087 240.505 -220.942 240.436C-220.652 240.298 -220.214 240.096 -219.627 239.84C-218.452 239.33 -216.681 238.606 -214.301 237.762C-209.543 236.073 -202.356 233.898 -192.658 231.966C-173.264 228.102 -143.826 225.209 -103.699 229.115C-23.445 236.927 99.5826 271.938 270.541 380.809C441.6 489.743 564.776 524.825 645.222 532.655C685.445 536.57 714.981 533.672 734.474 529.789C744.219 527.847 751.453 525.66 756.256 523.955C758.657 523.103 760.45 522.371 761.645 521.851C762.243 521.591 762.691 521.384 762.991 521.242C763.141 521.17 763.254 521.115 763.33 521.077C763.368 521.059 763.397 521.044 763.417 521.034L763.439 521.023L763.445 521.02C763.447 521.019 763.448 521.018 763.219 520.574L763.081 520.308C762.989 520.13 762.989 520.13 762.988 520.13L762.984 520.132L762.965 520.142C762.948 520.151 762.922 520.164 762.886 520.182C762.815 520.217 762.707 520.27 762.562 520.339C762.272 520.476 761.834 520.679 761.247 520.934C760.072 521.445 758.3 522.168 755.921 523.013C751.163 524.702 743.976 526.876 734.278 528.808C714.884 532.672 685.446 535.566 645.319 531.66C565.065 523.848 442.037 488.836 271.078 379.965C100.02 271.031 -23.1566 235.95 -103.602 228.119C-143.825 224.204 -173.362 227.102 -192.854 230.985C-202.6 232.927 -209.834 235.115 -214.636 236.819C-217.037 237.672 -218.83 238.404 -220.026 238.923C-220.623 239.183 -221.072 239.39 -221.372 239.533C-221.522 239.604 -221.635 239.659 -221.711 239.697C-221.749 239.716 -221.777 239.73 -221.797 239.74L-221.819 239.752L-221.826 239.755C-221.827 239.756 -221.828 239.756 -221.599 240.2ZM-223.616 247.687C-223.617 247.687 -223.617 247.687 -223.847 247.243C-224.076 246.799 -224.075 246.798 -224.073 246.798L-224.067 246.794L-224.045 246.783C-224.025 246.773 -223.996 246.759 -223.958 246.74C-223.882 246.702 -223.769 246.647 -223.619 246.576C-223.319 246.433 -222.871 246.226 -222.274 245.966C-221.078 245.446 -219.285 244.715 -216.884 243.862C-212.081 242.157 -204.847 239.97 -195.102 238.028C-175.609 234.145 -146.073 231.247 -105.85 235.162C-25.4043 242.993 97.7724 278.074 268.831 387.008C439.789 495.879 562.817 530.891 643.071 538.703C683.198 542.608 712.636 539.715 732.03 535.851C741.728 533.919 748.915 531.745 753.673 530.055C756.052 529.211 757.824 528.488 758.999 527.977C759.1 527.933 759.197 527.89 759.29 527.849C759.463 527.773 759.621 527.702 759.763 527.637C759.985 527.536 760.168 527.451 760.314 527.381C760.459 527.312 760.567 527.26 760.638 527.224L760.685 527.201L760.718 527.185L760.736 527.175L760.741 527.173C760.741 527.173 760.741 527.173 760.833 527.351L760.971 527.617C761.2 528.061 761.199 528.062 761.197 528.063L761.191 528.066L761.169 528.077C761.149 528.087 761.121 528.101 761.082 528.12C761.042 528.141 760.99 528.166 760.928 528.196C760.874 528.222 760.813 528.252 760.744 528.284C760.444 528.427 759.995 528.634 759.398 528.894C758.202 529.414 756.409 530.145 754.008 530.998C749.205 532.703 741.972 534.89 732.226 536.832C712.734 540.715 683.197 543.613 642.974 539.698C562.528 531.867 439.352 496.786 268.293 387.852C97.3348 278.981 -25.6928 243.969 -105.947 236.158C-146.074 232.252 -175.512 235.145 -194.906 239.009C-204.604 240.941 -211.791 243.116 -216.549 244.805C-218.928 245.649 -220.7 246.372 -221.875 246.883C-222.462 247.139 -222.9 247.341 -223.19 247.479C-223.335 247.548 -223.443 247.6 -223.514 247.636C-223.55 247.653 -223.576 247.667 -223.593 247.675L-223.612 247.685L-223.616 247.687ZM-226.095 254.286C-225.865 254.73 -225.865 254.73 -225.864 254.73L-225.86 254.728L-225.841 254.718C-225.824 254.709 -225.798 254.696 -225.762 254.679C-225.691 254.643 -225.583 254.59 -225.438 254.522C-225.148 254.384 -224.71 254.181 -224.123 253.926C-222.948 253.415 -221.176 252.692 -218.797 251.847C-214.039 250.158 -206.852 247.984 -197.154 246.052C-177.76 242.188 -148.322 239.294 -108.195 243.2C-27.9408 251.012 95.0869 286.024 266.046 394.895C437.104 503.829 560.281 538.91 640.726 546.741C680.949 550.656 710.486 547.758 729.978 543.875C739.724 541.933 746.958 539.745 751.76 538.041C754.161 537.188 755.954 536.457 757.15 535.937C757.263 535.888 757.371 535.84 757.473 535.795C757.912 535.601 758.252 535.443 758.496 535.327C758.55 535.301 758.6 535.277 758.645 535.256C758.692 535.233 758.733 535.213 758.769 535.195L758.835 535.163C758.873 535.144 758.901 535.13 758.921 535.12L758.943 535.108L758.949 535.105C758.951 535.105 758.952 535.104 758.723 534.66L758.585 534.393L758.509 534.246C758.493 534.216 758.493 534.216 758.493 534.216L758.488 534.218L758.47 534.228C758.452 534.236 758.426 534.249 758.39 534.267C758.319 534.302 758.211 534.355 758.066 534.424C757.776 534.562 757.338 534.764 756.751 535.02C755.576 535.53 753.804 536.254 751.425 537.098C746.667 538.787 739.48 540.962 729.782 542.894C710.388 546.758 680.95 549.651 640.823 545.745C560.569 537.934 437.541 502.922 266.583 394.051C95.5244 285.117 -27.6523 250.035 -108.098 242.205C-148.321 238.29 -177.857 241.188 -197.35 245.071C-207.095 247.013 -214.329 249.2 -219.132 250.905C-221.533 251.757 -223.326 252.489 -224.521 253.009C-225.119 253.269 -225.567 253.476 -225.867 253.618C-226.017 253.69 -226.13 253.745 -226.206 253.783L-226.25 253.804L-226.293 253.826L-226.315 253.837L-226.321 253.84C-226.323 253.841 -226.324 253.842 -226.095 254.286ZM-228.112 261.773C-228.113 261.773 -228.113 261.773 -228.342 261.329C-228.572 260.885 -228.571 260.884 -228.569 260.883L-228.563 260.88L-228.54 260.869C-228.521 260.859 -228.492 260.845 -228.454 260.826C-228.378 260.788 -228.265 260.733 -228.115 260.661C-227.815 260.519 -227.367 260.312 -226.769 260.052C-225.574 259.532 -223.781 258.801 -221.379 257.948C-216.577 256.243 -209.343 254.056 -199.597 252.114C-180.105 248.231 -150.569 245.333 -110.346 249.248C-29.9001 257.079 93.2766 292.16 264.335 401.094C435.294 509.965 558.321 544.977 638.575 552.789C678.703 556.694 708.14 553.801 727.535 549.937C737.232 548.005 744.419 545.83 749.178 544.141C751.557 543.297 753.329 542.574 754.503 542.063C755.09 541.807 755.529 541.605 755.819 541.467C755.869 541.443 755.915 541.421 755.957 541.401L756.008 541.376L756.054 541.354L756.143 541.31C756.178 541.293 756.205 541.279 756.222 541.271L756.241 541.261L756.245 541.259C756.245 541.259 756.246 541.259 756.338 541.437L756.475 541.703C756.704 542.147 756.703 542.148 756.702 542.148L756.696 542.152L756.673 542.163C756.654 542.173 756.625 542.187 756.587 542.206C756.511 542.244 756.398 542.299 756.248 542.37C756.118 542.432 755.959 542.506 755.773 542.592C755.53 542.703 755.24 542.833 754.902 542.98C753.707 543.5 751.913 544.231 749.512 545.084C744.71 546.789 737.476 548.976 727.73 550.918C708.238 554.801 678.702 557.699 638.479 553.784C558.033 545.953 434.856 510.872 263.798 401.938C92.8391 293.067 -30.1885 258.055 -110.443 250.243C-150.57 246.338 -180.008 249.231 -199.402 253.095C-209.099 255.027 -216.287 257.201 -221.045 258.891C-223.424 259.735 -225.196 260.458 -226.37 260.969C-226.958 261.225 -227.396 261.427 -227.686 261.565C-227.831 261.634 -227.939 261.686 -228.01 261.722C-228.046 261.739 -228.072 261.753 -228.089 261.761L-228.108 261.771L-228.112 261.773ZM-230.59 268.371C-230.361 268.815 -230.361 268.815 -230.36 268.815L-230.356 268.813L-230.337 268.803C-230.32 268.795 -230.293 268.781 -230.258 268.764C-230.187 268.728 -230.079 268.676 -229.934 268.607C-229.644 268.469 -229.206 268.267 -228.618 268.011C-227.444 267.5 -225.672 266.777 -223.293 265.933C-218.535 264.243 -211.347 262.069 -201.65 260.137C-182.255 256.273 -152.818 253.38 -112.691 257.285C-32.4363 265.097 90.5913 300.109 261.55 408.98C432.608 517.914 555.785 552.995 636.231 560.826C676.454 564.741 705.99 561.843 725.482 557.96C735.228 556.018 742.462 553.831 747.264 552.126C749.666 551.273 751.459 550.542 752.654 550.022C752.94 549.898 753.192 549.785 753.409 549.687C753.647 549.579 753.844 549.487 754 549.412C754.107 549.362 754.195 549.319 754.265 549.285L754.339 549.248C754.377 549.229 754.406 549.215 754.425 549.205L754.448 549.194L754.454 549.19C754.456 549.19 754.457 549.189 754.227 548.745L754.09 548.479C753.998 548.3 753.998 548.301 753.997 548.301L753.993 548.303L753.974 548.313C753.957 548.321 753.93 548.335 753.895 548.352C753.824 548.387 753.716 548.44 753.571 548.509C753.281 548.647 752.843 548.849 752.255 549.105C751.081 549.616 749.309 550.339 746.93 551.183C742.172 552.872 734.984 555.047 725.287 556.979C705.893 560.843 676.455 563.736 636.328 559.831C556.073 552.019 433.046 517.007 262.087 408.136C91.0289 299.202 -32.1478 264.121 -112.594 256.29C-152.817 252.375 -182.353 255.273 -201.845 259.156C-211.591 261.098 -218.825 263.285 -223.627 264.99C-226.028 265.843 -227.822 266.574 -229.017 267.094C-229.615 267.354 -230.063 267.561 -230.363 267.703C-230.513 267.775 -230.626 267.83 -230.702 267.868L-230.75 267.891L-230.788 267.911L-230.811 267.922L-230.817 267.925C-230.818 267.926 -230.819 267.927 -230.59 268.371ZM-232.608 275.858C-232.609 275.858 -232.609 275.859 -232.838 275.414C-233.067 274.97 -233.066 274.969 -233.065 274.969L-233.059 274.965L-233.036 274.954C-233.017 274.944 -232.988 274.93 -232.95 274.911C-232.874 274.873 -232.761 274.818 -232.611 274.747C-232.311 274.604 -231.863 274.397 -231.265 274.137C-230.07 273.617 -228.276 272.886 -225.875 272.033C-221.073 270.328 -213.839 268.141 -204.093 266.199C-184.601 262.316 -155.065 259.418 -114.842 263.333C-34.3958 271.164 88.7809 306.245 259.839 415.179C430.798 524.05 553.825 559.062 634.08 566.874C674.207 570.78 703.645 567.886 723.039 564.022C732.736 562.09 739.924 559.916 744.682 558.226C747.061 557.382 748.833 556.659 750.007 556.148C750.595 555.892 751.033 555.69 751.323 555.552C751.468 555.483 751.576 555.431 751.647 555.395C751.683 555.378 751.709 555.364 751.726 555.356L751.745 555.346L751.749 555.344C751.75 555.344 751.75 555.344 751.842 555.522L751.979 555.788C752.209 556.232 752.208 556.233 752.206 556.234L752.2 556.237L752.177 556.248C752.158 556.258 752.129 556.273 752.091 556.291C752.015 556.329 751.902 556.384 751.752 556.456C751.452 556.598 751.004 556.805 750.406 557.065C749.211 557.585 747.418 558.316 745.016 559.169C740.214 560.874 732.98 563.061 723.234 565.003C703.742 568.886 674.206 571.784 633.983 567.869C553.537 560.038 430.36 524.957 259.302 416.023C88.3434 307.152 -34.6843 272.14 -114.939 264.329C-155.066 260.423 -184.503 263.316 -203.898 267.18C-213.595 269.112 -220.783 271.287 -225.541 272.976C-227.92 273.82 -229.692 274.543 -230.866 275.054C-231.454 275.31 -231.892 275.512 -232.182 275.65C-232.327 275.719 -232.435 275.771 -232.506 275.807C-232.541 275.824 -232.568 275.838 -232.585 275.846L-232.604 275.856L-232.608 275.858ZM-235.086 282.457C-234.857 282.901 -234.856 282.901 -234.856 282.901L-234.851 282.899L-234.833 282.889C-234.815 282.88 -234.789 282.867 -234.753 282.85C-234.682 282.814 -234.574 282.761 -234.429 282.693C-234.139 282.555 -233.701 282.352 -233.114 282.097C-231.939 281.586 -230.168 280.863 -227.788 280.018C-223.03 278.329 -215.843 276.155 -206.145 274.223C-186.751 270.359 -157.313 267.465 -117.186 271.371C-36.932 279.183 86.0956 314.195 257.054 423.066C428.113 532 551.289 567.081 631.735 574.912C671.958 578.827 701.494 575.929 720.987 572.046C730.732 570.104 737.966 567.916 742.769 566.212C745.17 565.359 746.963 564.628 748.158 564.108C748.756 563.848 749.204 563.641 749.504 563.498C749.584 563.461 749.653 563.427 749.711 563.399C749.763 563.374 749.807 563.352 749.843 563.334C749.881 563.315 749.91 563.301 749.93 563.291L749.952 563.279L749.958 563.276C749.96 563.276 749.961 563.275 749.732 562.831L749.594 562.564C749.502 562.386 749.502 562.387 749.501 562.387L749.497 562.389L749.478 562.399C749.461 562.407 749.435 562.42 749.399 562.438C749.36 562.457 749.311 562.482 749.25 562.511C749.199 562.536 749.141 562.564 749.075 562.595C748.785 562.733 748.347 562.935 747.76 563.191C746.585 563.701 744.813 564.425 742.434 565.269C737.676 566.958 730.489 569.133 720.791 571.065C701.397 574.929 671.959 577.822 631.832 573.916C551.578 566.105 428.55 531.093 257.591 422.222C86.5332 313.288 -36.6436 278.206 -117.089 270.376C-157.312 266.461 -186.849 269.359 -206.341 273.242C-216.087 275.184 -223.321 277.371 -228.123 279.076C-230.524 279.928 -232.317 280.66 -233.513 281.18C-234.11 281.44 -234.559 281.647 -234.859 281.789C-235.009 281.861 -235.122 281.916 -235.198 281.954C-235.236 281.972 -235.264 281.987 -235.284 281.997L-235.306 282.008L-235.313 282.011C-235.314 282.012 -235.315 282.013 -235.086 282.457ZM-237.104 289.944C-237.104 289.944 -237.104 289.944 -237.334 289.5C-237.563 289.055 -237.562 289.055 -237.56 289.054L-237.554 289.051L-237.532 289.04C-237.512 289.03 -237.483 289.015 -237.445 288.996C-237.369 288.959 -237.256 288.903 -237.106 288.832C-236.806 288.69 -236.358 288.483 -235.761 288.223C-234.565 287.703 -232.772 286.971 -230.371 286.119C-225.568 284.414 -218.334 282.226 -208.589 280.285C-189.096 276.402 -159.56 273.504 -119.337 277.419C-38.8914 285.249 84.2853 320.331 255.344 429.265C426.302 538.136 549.33 573.147 629.584 580.959C669.711 584.865 699.149 581.971 718.543 578.108C728.241 576.176 735.428 574.001 740.186 572.312C742.565 571.467 744.337 570.744 745.512 570.233C746.099 569.978 746.537 569.776 746.827 569.638C746.972 569.569 747.08 569.516 747.151 569.481L747.187 569.463L747.231 569.441L747.249 569.432L747.254 569.43C747.254 569.429 747.254 569.429 747.346 569.607L747.484 569.873C747.601 570.101 747.658 570.213 747.686 570.267C747.712 570.318 747.711 570.319 747.71 570.319L747.704 570.322L747.682 570.334C747.662 570.344 747.633 570.358 747.595 570.377C747.519 570.415 747.407 570.47 747.257 570.541C746.957 570.684 746.508 570.891 745.911 571.151C744.715 571.67 742.922 572.402 740.521 573.254C735.718 574.959 728.484 577.147 718.739 579.088C699.247 582.972 669.71 585.87 629.487 581.954C549.041 574.124 425.865 539.042 254.806 430.108C83.8478 321.238 -39.1798 286.226 -119.434 278.414C-159.561 274.508 -188.999 277.402 -208.393 281.266C-218.091 283.197 -225.278 285.372 -230.036 287.061C-232.415 287.906 -234.187 288.629 -235.362 289.14C-235.949 289.395 -236.387 289.597 -236.677 289.735C-236.822 289.804 -236.93 289.857 -237.001 289.892C-237.037 289.91 -237.063 289.923 -237.08 289.932L-237.099 289.941L-237.104 289.944ZM-239.582 296.543C-239.352 296.987 -239.352 296.987 -239.351 296.987L-239.347 296.985L-239.328 296.975L-239.301 296.961L-239.249 296.936C-239.178 296.9 -239.07 296.847 -238.925 296.779C-238.635 296.641 -238.197 296.438 -237.61 296.183C-236.435 295.672 -234.663 294.949 -232.284 294.104C-227.526 292.415 -220.339 290.241 -210.641 288.309C-191.247 284.445 -161.809 281.551 -121.682 285.457C-41.4278 293.269 81.5999 328.281 252.559 437.152C423.617 546.086 546.794 581.167 627.239 588.998C667.462 592.913 696.999 590.015 716.491 586.132C726.237 584.19 733.47 582.002 738.273 580.298C740.674 579.445 742.467 578.714 743.663 578.194C743.91 578.086 744.132 577.988 744.328 577.899C744.606 577.774 744.833 577.668 745.009 577.584C745.159 577.513 745.272 577.458 745.348 577.42C745.386 577.401 745.414 577.387 745.434 577.377L745.456 577.365L745.462 577.362C745.463 577.362 745.464 577.362 745.45 577.334C745.429 577.292 745.374 577.185 745.236 576.917L745.098 576.65C745.006 576.472 745.006 576.472 745.006 576.473L745.001 576.475L744.983 576.485C744.965 576.493 744.939 576.506 744.903 576.524C744.832 576.559 744.724 576.612 744.579 576.681C744.425 576.754 744.229 576.846 743.99 576.954C743.781 577.049 743.539 577.157 743.264 577.277C742.089 577.787 740.317 578.511 737.938 579.355C733.18 581.044 725.993 583.219 716.295 585.151C696.901 589.015 667.463 591.908 627.336 588.002C547.082 580.191 424.054 545.179 253.096 436.308C82.0374 327.374 -41.1393 292.292 -121.585 284.462C-161.808 280.547 -191.344 283.445 -210.837 287.328C-220.582 289.27 -227.816 291.457 -232.619 293.162C-235.02 294.014 -236.813 294.746 -238.009 295.266C-238.606 295.526 -239.054 295.733 -239.354 295.875C-239.504 295.947 -239.617 296.002 -239.693 296.04L-239.743 296.064L-239.78 296.083L-239.802 296.094L-239.808 296.097C-239.81 296.098 -239.811 296.099 -239.582 296.543ZM-241.599 304.029C-241.6 304.029 -241.6 304.029 -241.829 303.585C-242.059 303.141 -242.058 303.14 -242.056 303.139L-242.05 303.136L-242.028 303.125C-242.008 303.115 -241.979 303.1 -241.941 303.082C-241.865 303.044 -241.752 302.989 -241.602 302.917C-241.302 302.775 -240.854 302.568 -240.256 302.308C-239.061 301.788 -237.268 301.056 -234.866 300.204C-230.064 298.499 -222.83 296.312 -213.084 294.37C-193.592 290.487 -164.056 287.589 -123.833 291.504C-43.3871 299.334 79.7896 334.416 250.848 443.35C421.807 552.221 544.834 587.233 625.088 595.044C665.216 598.95 694.653 596.057 714.048 592.193C723.745 590.261 730.932 588.086 735.691 586.397C738.07 585.553 739.842 584.829 741.016 584.319C741.603 584.063 742.042 583.861 742.332 583.723C742.397 583.692 742.455 583.664 742.506 583.64C742.567 583.61 742.617 583.585 742.656 583.566L742.701 583.544L742.735 583.527L742.754 583.517L742.758 583.515C742.758 583.514 742.759 583.514 742.851 583.692L742.988 583.959C743.121 584.217 743.177 584.325 743.199 584.371C743.216 584.404 743.215 584.404 743.215 584.404L743.209 584.407L743.186 584.419L743.159 584.433L743.1 584.462C743.024 584.5 742.911 584.555 742.761 584.626C742.461 584.769 742.013 584.976 741.415 585.236C740.22 585.756 738.426 586.487 736.025 587.34C731.223 589.044 723.989 591.232 714.243 593.174C694.751 597.057 665.215 599.955 624.992 596.04C544.546 588.209 421.369 553.128 250.311 444.194C79.3521 335.323 -43.6756 300.311 -123.93 292.499C-164.057 288.593 -193.495 291.487 -212.889 295.351C-222.586 297.283 -229.774 299.457 -234.532 301.146C-236.911 301.991 -238.683 302.714 -239.857 303.225C-240.445 303.48 -240.883 303.683 -241.173 303.821C-241.318 303.889 -241.426 303.942 -241.497 303.978L-241.561 304.01L-241.576 304.017L-241.595 304.027L-241.599 304.029ZM-243.847 311.072C-243.848 311.072 -243.848 311.072 -244.077 310.628C-244.307 310.184 -244.306 310.183 -244.304 310.182L-244.298 310.179L-244.275 310.168C-244.256 310.158 -244.227 310.144 -244.189 310.125C-244.113 310.087 -244 310.032 -243.85 309.961C-243.55 309.818 -243.102 309.611 -242.504 309.351C-241.309 308.831 -239.516 308.1 -237.114 307.247C-232.312 305.542 -225.078 303.355 -215.332 301.413C-195.84 297.53 -166.304 294.632 -126.081 298.547C-45.635 306.378 77.5417 341.459 248.6 450.393C419.559 559.264 542.586 594.276 622.841 602.088C662.968 605.993 692.405 603.1 711.8 599.236C721.497 597.304 728.685 595.129 733.443 593.44C735.822 592.596 737.594 591.873 738.768 591.362C739.356 591.106 739.794 590.904 740.084 590.766C740.154 590.733 740.216 590.703 740.269 590.677C740.325 590.65 740.371 590.627 740.408 590.609C740.443 590.592 740.47 590.578 740.487 590.57L740.506 590.56L740.51 590.558C740.51 590.558 740.51 590.558 740.532 590.599L740.603 590.736L740.74 591.002C740.83 591.175 740.884 591.281 740.917 591.346C740.969 591.447 740.968 591.447 740.967 591.447L740.961 591.451L740.938 591.462C740.919 591.472 740.89 591.486 740.852 591.505C740.776 591.543 740.663 591.598 740.513 591.669C740.25 591.794 739.873 591.969 739.382 592.185C739.313 592.215 739.241 592.247 739.167 592.279C737.972 592.799 736.178 593.53 733.777 594.383C728.975 596.088 721.741 598.275 711.995 600.217C692.503 604.1 662.967 606.998 622.744 603.083C542.298 595.252 419.121 560.171 248.063 451.237C77.1041 342.366 -45.9235 307.354 -126.178 299.542C-166.305 295.637 -195.743 298.53 -215.137 302.394C-224.834 304.326 -232.022 306.5 -236.78 308.19C-239.159 309.034 -240.931 309.757 -242.105 310.268C-242.693 310.524 -243.131 310.726 -243.421 310.864C-243.566 310.933 -243.674 310.985 -243.745 311.021C-243.781 311.038 -243.807 311.052 -243.824 311.06L-243.843 311.07L-243.847 311.072Z" fill="url(#paint0_radial_47_1053)"/>
<defs>
<radialGradient id="paint0_radial_47_1053" cx="0" cy="0" r="1" gradientUnits="userSpaceOnUse" gradientTransform="translate(255.474 249.5) rotate(50.2785) scale(444.63 466.29)">
<stop stop-color="#10B981" stop-opacity="0.46"/>
<stop offset="0.406987" stop-color="#D8E3D6" stop-opacity="0.28"/>
<stop offset="1" stop-color="#6C9820" stop-opacity="0.05"/>
</radialGradient>
</defs>
</svg>
