<svg width="159" height="31" viewBox="0 0 159 31" fill="none" xmlns="http://www.w3.org/2000/svg">
<path d="M156.426 12.8436C155.006 12.8436 153.851 14.0352 153.851 15.5C153.851 16.9648 155.006 18.1564 156.426 18.1564C157.845 18.1564 159 16.9648 159 15.5C159 14.0352 157.845 12.8436 156.426 12.8436ZM158.315 15.5C158.315 16.5754 157.468 17.4495 156.426 17.4495C155.383 17.4495 154.536 16.5745 154.536 15.5C154.536 14.4255 155.383 13.5505 156.426 13.5505C157.468 13.5505 158.315 14.4255 158.315 15.5Z" fill="#00A7BF"/>
<path d="M48.8395 1.30704C48.4338 0.946991 47.8046 0.768391 46.9492 0.768391C45.962 0.768391 45.1835 1.05377 44.6102 1.62172C44.0406 2.19344 43.7512 2.91732 43.7512 3.79995C43.7512 4.3386 43.9518 4.79315 44.3492 5.16264C44.7467 5.53497 45.3722 5.72208 46.223 5.72208C47.2304 5.72208 48.0207 5.44046 48.594 4.88102C49.1637 4.3178 49.4522 3.61 49.4522 2.74911C49.4522 2.14903 49.2479 1.66897 48.8386 1.30798L48.8395 1.30704ZM43.6349 7.39756L40.991 23.301H45.5251L48.2012 7.39756H43.6349Z" fill="#004169"/>
<path d="M56.612 10.1589V10.1296H61.9887L62.4265 7.39662H56.9014L57.2503 6.28719L57.8923 2.6272H53.326L52.5714 7.18967L52.5394 7.39662H49.5181L49.0529 10.1296H52.0741L51.1428 15.5577C51.01 16.2201 50.8936 16.9156 50.7938 17.6442C50.6977 18.3728 50.6977 19.0929 50.7938 19.8054C50.8946 20.5132 51.1345 21.1596 51.5246 21.7389C51.9102 22.3182 52.5155 22.7784 53.3425 23.1214C54.1649 23.4607 55.2648 23.6308 56.6413 23.6308C57.6881 23.6308 58.5993 23.5561 59.3741 23.403C60.1489 23.2537 60.8586 23.0713 61.4969 22.8483L61.4411 19.6391C60.9356 19.8376 60.4135 20.0039 59.8686 20.1314C59.3265 20.2637 58.8411 20.3299 58.4161 20.3299C57.3291 20.3299 56.5744 20.0984 56.1495 19.6382C55.7246 19.1789 55.4993 18.5826 55.4791 17.854C55.459 17.1207 55.5396 16.359 55.7117 15.5558L56.6147 10.157L56.612 10.1589Z" fill="#004169"/>
<path d="M80.8032 9.00407C79.4671 7.73304 77.4605 7.0999 74.7845 7.0999C72.5334 7.0999 70.5754 7.53838 68.9104 8.42101C67.2409 9.29891 65.9496 10.5123 65.0301 12.0517C64.107 13.592 63.6454 15.3394 63.6454 17.3021C63.6454 18.4616 63.9385 19.5172 64.52 20.465C65.1016 21.4176 66.0082 22.1745 67.2363 22.7463C68.4681 23.318 70.0534 23.5996 71.9912 23.5996C73.4437 23.5996 74.8605 23.4172 76.237 23.0449C77.6134 22.6763 78.7848 22.1509 79.7564 21.4715L78.565 19.0702C78.3525 19.1694 77.9789 19.3065 77.4458 19.4756C76.9119 19.6457 76.2983 19.8026 75.6005 19.9396C74.9026 20.0804 74.1837 20.1504 73.4456 20.1504C71.8365 20.1504 70.5846 19.8111 69.6816 19.1316C68.7786 18.4522 68.3289 17.6206 68.3289 16.6387V16.2201H82.1403L82.4334 14.6882C82.6825 12.1708 82.1403 10.2741 80.8041 9.00312L80.8032 9.00407ZM68.97 13.8481C69.4718 12.7879 70.2219 11.9355 71.2211 11.2853C72.2202 10.6351 73.3192 10.3082 74.5235 10.3082C75.627 10.3082 76.5099 10.6144 77.1674 11.2229C77.825 11.8362 78.1547 12.7094 78.1547 13.8481H68.97Z" fill="#004169"/>
<path d="M97.1304 14.9169C96.3638 14.5654 95.5451 14.2668 94.6751 14.0145C93.8005 13.7659 92.9817 13.5297 92.2152 13.3104C91.4487 13.0912 90.8186 12.8549 90.325 12.6064C89.8313 12.3541 89.5822 12.0602 89.5822 11.72C89.5822 11.3184 89.8707 10.9545 90.4413 10.6228C91.0146 10.2959 91.8013 10.1305 92.8123 10.1305C93.6265 10.1305 94.469 10.2297 95.34 10.4282C96.2146 10.6314 96.9893 10.8468 97.667 11.0746C98.3447 11.3061 98.8109 11.4592 99.0637 11.5386L100.46 8.50793C100.208 8.4087 99.7258 8.24333 99.0197 8.01559C98.309 7.78406 97.439 7.5771 96.4032 7.38621C95.3638 7.19532 94.2162 7.10082 92.9561 7.10082C91.3873 7.10082 89.9788 7.32007 88.7388 7.7595C87.4987 8.2027 86.5197 8.81128 85.8017 9.58996C85.0874 10.3724 84.7266 11.2834 84.7266 12.3229C84.7266 13.0222 84.9757 13.6109 85.4693 14.091C85.9629 14.5711 86.5967 14.9727 87.3751 15.2921C88.149 15.6106 88.9723 15.8922 89.8469 16.1322C90.7178 16.3722 91.5402 16.6038 92.3187 16.8239C93.0935 17.0432 93.7272 17.2794 94.2208 17.528C94.7145 17.7803 94.9626 18.095 94.9626 18.472C94.9626 18.9729 94.6421 19.4038 94.0038 19.7638C93.3618 20.1239 92.5669 20.3025 91.6199 20.3025C90.673 20.3025 89.8185 20.1985 88.9595 19.9878C88.0968 19.7809 87.3183 19.5446 86.6324 19.2838C85.9419 19.023 85.1918 18.6837 84.3776 18.2651L82.3436 21.325C83.3309 21.7842 84.2494 22.1651 85.092 22.4637C85.9345 22.7661 86.8934 23.0307 87.9686 23.2585C89.0437 23.49 90.1638 23.6024 91.3268 23.6024C93.0522 23.6024 94.545 23.3501 95.8052 22.8408C97.0653 22.3276 98.0398 21.6482 98.7266 20.7996C99.4162 19.951 99.7615 19.0022 99.7615 17.9636C99.7615 17.2643 99.5133 16.668 99.0197 16.1795C98.5261 15.6909 97.896 15.2685 97.1294 14.9207L97.1304 14.9169Z" fill="#004169"/>
<path d="M120.219 10.2335C119.878 9.26488 119.2 8.49848 118.18 7.93999C117.165 7.38055 115.764 7.09989 113.98 7.09989C111.536 7.09989 109.562 7.70847 108.049 8.93036L108.57 7.72925L109.822 0.5H105.227L101.359 23.301H105.953L107.35 14.8092V14.7185C107.699 13.1989 108.289 12.064 109.124 11.3146C109.958 10.5652 111.102 10.1881 112.555 10.1881C113.795 10.1881 114.705 10.4698 115.287 11.0283C115.869 11.5877 116.054 12.4609 115.841 13.6412L114.212 23.2717H118.75L120.375 13.5212C120.607 12.3002 120.555 11.2069 120.218 10.2335H120.219Z" fill="#004169"/>
<path d="M129.797 1.30704C129.392 0.946991 128.762 0.768391 127.906 0.768391C126.919 0.768391 126.137 1.05377 125.567 1.62172C124.994 2.19344 124.709 2.91732 124.709 3.79995C124.709 4.3386 124.91 4.79315 125.307 5.16264C125.705 5.53497 126.327 5.72208 127.181 5.72208C128.188 5.72208 128.979 5.44046 129.552 4.88102C130.122 4.3178 130.406 3.61 130.406 2.74911C130.406 2.14903 130.206 1.66897 129.797 1.30798V1.30704ZM124.593 7.39756L121.949 23.301H126.483L129.159 7.39756H124.593Z" fill="#004169"/>
<path d="M149.527 12.2001C149.246 10.5973 148.504 9.35938 147.304 8.47769C146.101 7.59979 144.483 7.15659 142.449 7.15659C139.945 7.15659 137.87 7.79824 136.225 9.07777L135.35 7.42969H132.646L128.693 30.5H133.199L134.567 22.579L134.535 21.9496C135.137 22.4713 135.859 22.8729 136.702 23.163C137.544 23.4531 138.52 23.5977 139.627 23.5977C142.067 23.5977 144.061 23.0883 145.602 22.0696C147.142 21.0509 148.222 19.6306 148.844 17.8096C149.578 15.6692 149.806 13.7971 149.526 12.1991L149.527 12.2001ZM144.105 17.5705C143.736 18.6308 143.143 19.3802 142.331 19.8186C141.516 20.2619 140.545 20.4811 139.422 20.4811C138.238 20.4811 137.307 20.191 136.629 19.6117C135.952 19.0324 135.546 18.2206 135.41 17.1811C135.273 16.1416 135.438 14.9283 135.903 13.5495C136.272 12.4486 136.899 11.6245 137.777 11.0736C138.66 10.5227 139.711 10.2496 140.935 10.2496C142.158 10.2496 142.993 10.5605 143.623 11.1766C144.253 11.7975 144.61 12.6631 144.698 13.7725C144.786 14.882 144.585 16.1492 144.104 17.5695L144.105 17.5705Z" fill="#004169"/>
<path d="M14.1411 7.184L18.0516 13.2859C18.5343 14.039 18.4454 15.037 17.8392 15.6871L11.4568 22.5261C11.0182 22.9967 10.4128 23.2622 9.77999 23.2622H5.02782C4.03966 23.2622 3.55428 22.0205 4.26587 21.3127L10.8332 14.7799C10.911 14.7024 10.9211 14.5758 10.8552 14.487L6.43543 8.48716C5.69179 7.47695 6.38964 6.02544 7.61866 6.02544H12.0503C12.8919 6.02544 13.6768 6.46107 14.1411 7.18494V7.184Z" fill="#00A7BF"/>
<path d="M2.48644 17.2095C3.85966 17.2095 4.97287 16.0608 4.97287 14.6438C4.97287 13.2269 3.85966 12.0782 2.48644 12.0782C1.11322 12.0782 0 13.2269 0 14.6438C0 16.0608 1.11322 17.2095 2.48644 17.2095Z" fill="#00A7BF"/>
<path d="M38.7481 19.5767L38.1373 23.145H22.2323L22.878 18.8689L25.6483 15.9007C26.2546 15.2505 26.3425 14.2526 25.8599 13.4994L24.2572 10.9971L24.3112 10.689L25.836 1.53855H30.7228L27.697 19.5758H38.7481V19.5767Z" fill="#004169"/>
</svg>
